<svg width="25" height="24" viewBox="0 0 25 24" fill="none" xmlns="http://www.w3.org/2000/svg">
<path d="M19.0775 19.5001H16.25L16.625 22.8751H8.375L8.75 19.5001H5.9225C6.01308 18.3955 6.50902 17.3635 7.31488 16.6026C8.12073 15.8417 9.17954 15.4058 10.2875 15.3788C10.3761 15.902 10.647 16.377 11.0524 16.7195C11.4577 17.062 11.9712 17.2499 12.5019 17.2499C13.0325 17.2499 13.546 17.062 13.9514 16.7195C14.3567 16.377 14.6277 15.902 14.7162 15.3788C15.8234 15.4073 16.881 15.8437 17.686 16.6044C18.4909 17.3651 18.9865 18.3963 19.0775 19.5001ZM19.2388 9.01132C19.3614 9.13233 19.4587 9.27656 19.5251 9.43559C19.5914 9.59462 19.6253 9.76527 19.625 9.93757C19.625 10.2857 19.4867 10.6195 19.2406 10.8657C18.9944 11.1118 18.6606 11.2501 18.3125 11.2501H17.6975C17.7322 11.0016 17.7497 10.751 17.75 10.5001V8.62507H18.3125C18.3753 8.62432 18.4381 8.62934 18.5 8.64007C18.7803 8.67956 19.0398 8.80999 19.2388 9.01132ZM7.25 8.62507V10.5001C7.25029 10.751 7.26783 11.0016 7.3025 11.2501H6.6875C6.3394 11.2501 6.00556 11.1118 5.75942 10.8657C5.51328 10.6195 5.375 10.2857 5.375 9.93757C5.37638 9.62251 5.49063 9.31837 5.69703 9.08032C5.90343 8.84227 6.18831 8.68608 6.5 8.64007C6.56191 8.62934 6.62467 8.62432 6.6875 8.62507H7.25Z" stroke="white" stroke-width="0.5"/>
<path d="M18.5 8.625V8.64C18.4381 8.62927 18.3753 8.62425 18.3125 8.625H17.1163C16.7672 8.62508 16.429 8.50341 16.16 8.28094C15.891 8.05847 15.708 7.74914 15.6425 7.40625L15.125 5.4375C15.1233 5.08992 14.9845 4.75705 14.7387 4.51127C14.4929 4.2655 14.1601 4.12668 13.8125 4.125C13.4644 4.125 13.1306 4.26328 12.8844 4.50942C12.6383 4.75556 12.5 5.0894 12.5 5.4375C12.4983 5.08992 12.3595 4.75705 12.1137 4.51127C11.8679 4.2655 11.5351 4.12668 11.1875 4.125C10.8394 4.125 10.5056 4.26328 10.2594 4.50942C10.0133 4.75556 9.875 5.0894 9.875 5.4375L9.3575 7.40625C9.29205 7.74914 9.10905 8.05847 8.84003 8.28094C8.57102 8.50341 8.23284 8.62508 7.88375 8.625H6.6875C6.62467 8.62425 6.56191 8.62927 6.5 8.64V4.875C6.5 3.88044 6.89509 2.92661 7.59835 2.22335C8.30161 1.52009 9.25544 1.125 10.25 1.125H14.75C15.2425 1.125 15.7301 1.222 16.1851 1.41045C16.64 1.59891 17.0534 1.87513 17.4017 2.22335C17.7499 2.57157 18.0261 2.98497 18.2145 3.43994C18.403 3.89491 18.5 4.38254 18.5 4.875V8.625Z" stroke="white" stroke-width="0.5"/>
<path d="M15.6912 15.1275C16.8877 14.303 17.7194 13.0481 18.0125 11.625H18.3125C18.7598 11.6243 19.1887 11.4463 19.505 11.13C19.8213 10.8137 19.9993 10.3848 20 9.9375C20.0014 9.71629 19.9583 9.49706 19.8733 9.29284C19.7882 9.08863 19.663 8.90359 19.505 8.74875C19.3277 8.57039 19.1123 8.43449 18.875 8.35125V4.875C18.8743 3.7812 18.4395 2.73239 17.666 1.95895C16.8926 1.18552 15.8438 0.750695 14.75 0.75H10.25C9.1562 0.750695 8.10739 1.18552 7.33395 1.95895C6.56052 2.73239 6.1257 3.7812 6.125 4.875V8.35125C5.79675 8.4673 5.51244 8.68204 5.31103 8.96603C5.10962 9.25001 5.00098 9.58934 5 9.9375C5.00069 10.3848 5.17871 10.8137 5.49502 11.13C5.81134 11.4463 6.24016 11.6243 6.6875 11.625H6.9875C7.28065 13.0481 8.1123 14.303 9.30875 15.1275C8.27727 15.3689 7.35193 15.9384 6.67169 16.7505C5.99145 17.5626 5.59303 18.5734 5.53625 19.6312L5.375 22.8563C5.37324 22.9072 5.38162 22.9579 5.39965 23.0055C5.41767 23.0532 5.44498 23.0968 5.48 23.1337C5.51451 23.1708 5.55633 23.2002 5.6028 23.2202C5.64928 23.2402 5.6994 23.2504 5.75 23.25H19.25C19.3006 23.2504 19.3507 23.2402 19.3972 23.2202C19.4437 23.2002 19.4855 23.1708 19.52 23.1337C19.555 23.0968 19.5823 23.0532 19.6004 23.0055C19.6184 22.9579 19.6268 22.9072 19.625 22.8563L19.4637 19.6312C19.407 18.5734 19.0085 17.5626 18.3283 16.7505C17.6481 15.9384 16.7227 15.3689 15.6912 15.1275ZM18.9762 9.2775C19.0634 9.36384 19.1325 9.46667 19.1795 9.57998C19.2265 9.69329 19.2504 9.81483 19.25 9.9375C19.25 10.1861 19.1512 10.4246 18.9754 10.6004C18.7996 10.7762 18.5611 10.875 18.3125 10.875H18.1063C18.1138 10.7513 18.125 10.6275 18.125 10.5V9H18.3125C18.436 8.99973 18.5584 9.02414 18.6724 9.07179C18.7863 9.11945 18.8897 9.18938 18.9762 9.2775ZM6.6875 10.875C6.43886 10.875 6.2004 10.7762 6.02459 10.6004C5.84877 10.4246 5.75 10.1861 5.75 9.9375C5.75089 9.68913 5.84995 9.45119 6.02557 9.27557C6.20119 9.09995 6.43913 9.00089 6.6875 9H6.875V10.5C6.875 10.6275 6.88625 10.7513 6.89375 10.875H6.6875ZM6.875 8.25V4.875C6.87639 3.98032 7.23241 3.12268 7.86505 2.49005C8.49768 1.85741 9.35532 1.50139 10.25 1.5H14.75C15.6447 1.50139 16.5023 1.85741 17.135 2.49005C17.7676 3.12268 18.1236 3.98032 18.125 4.875V8.25H17.1163C16.8506 8.24906 16.5937 8.15458 16.3907 7.98315C16.1878 7.81172 16.0516 7.57428 16.0062 7.3125L15.5 5.385C15.4837 4.94751 15.299 4.53323 14.9846 4.22859C14.6702 3.92395 14.2503 3.7525 13.8125 3.75C13.5605 3.74984 13.3117 3.80639 13.0845 3.91544C12.8573 4.0245 12.6575 4.18327 12.5 4.38C12.4629 4.33366 12.4228 4.28981 12.38 4.24875C12.225 4.08974 12.0394 3.96362 11.8345 3.87792C11.6297 3.79223 11.4096 3.74872 11.1875 3.75C10.7489 3.74979 10.3274 3.92035 10.0124 4.22555C9.69744 4.53075 9.51365 4.94661 9.5 5.385L8.99 7.335C8.94107 7.5925 8.80377 7.82484 8.6018 7.99189C8.39982 8.15895 8.14586 8.25024 7.88375 8.25H6.875ZM7.625 10.5V9H7.88375C8.31616 9.00073 8.73549 8.8517 9.07046 8.57825C9.40544 8.3048 9.63539 7.9238 9.72125 7.5L10.2387 5.53125C10.2464 5.50059 10.2502 5.4691 10.25 5.4375C10.25 5.18886 10.3488 4.9504 10.5246 4.77459C10.7004 4.59877 10.9389 4.5 11.1875 4.5C11.4359 4.50089 11.6738 4.59995 11.8494 4.77557C12.0251 4.95119 12.1241 5.18913 12.125 5.4375C12.125 5.53696 12.1645 5.63234 12.2348 5.70266C12.3052 5.77299 12.4005 5.8125 12.5 5.8125C12.5995 5.8125 12.6948 5.77299 12.7652 5.70266C12.8355 5.63234 12.875 5.53696 12.875 5.4375C12.875 5.18886 12.9738 4.9504 13.1496 4.77459C13.3254 4.59877 13.5639 4.5 13.8125 4.5C14.0609 4.50089 14.2988 4.59995 14.4744 4.77557C14.6501 4.95119 14.7491 5.18913 14.75 5.4375C14.7498 5.4691 14.7536 5.50059 14.7612 5.53125L15.275 7.4775C15.357 7.90579 15.5857 8.29211 15.9217 8.56999C16.2578 8.84787 16.6802 8.99993 17.1163 9H17.375V10.5C17.375 11.7929 16.8614 13.0329 15.9471 13.9471C15.0329 14.8614 13.7929 15.375 12.5 15.375C11.2071 15.375 9.96709 14.8614 9.05285 13.9471C8.13861 13.0329 7.625 11.7929 7.625 10.5ZM14.1537 15.8775C13.9958 16.1784 13.7586 16.4304 13.4678 16.6063C13.177 16.7821 12.8436 16.875 12.5037 16.875C12.1639 16.875 11.8305 16.7821 11.5397 16.6063C11.2489 16.4304 11.0117 16.1784 10.8538 15.8775C11.3869 16.0422 11.9419 16.1257 12.5 16.125C13.0605 16.1254 13.6179 16.042 14.1537 15.8775ZM8.0375 22.5H6.14375L6.275 19.875H8.33L8.0375 22.5ZM16.205 22.5H8.795L9.12125 19.5413C9.12766 19.4889 9.12295 19.4358 9.10745 19.3854C9.09194 19.335 9.06597 19.2884 9.03125 19.2488C8.99544 19.2098 8.95197 19.1788 8.90357 19.1575C8.85517 19.1362 8.80288 19.1251 8.75 19.125H6.35375C6.5179 18.2479 6.96176 17.4476 7.61886 16.8439C8.27595 16.2402 9.11093 15.8656 9.99875 15.7762C10.1635 16.3115 10.4955 16.7799 10.946 17.1126C11.3965 17.4453 11.9418 17.6248 12.5019 17.6248C13.0619 17.6248 13.6072 17.4453 14.0577 17.1126C14.5083 16.7799 14.8403 16.3115 15.005 15.7762C15.8919 15.867 16.7258 16.2421 17.382 16.8457C18.0382 17.4492 18.4817 18.2487 18.6462 19.125H16.25C16.1971 19.1251 16.1448 19.1362 16.0964 19.1575C16.048 19.1788 16.0046 19.2098 15.9688 19.2488C15.934 19.2884 15.9081 19.335 15.8926 19.3854C15.877 19.4358 15.8723 19.4889 15.8787 19.5413L16.205 22.5ZM16.9625 22.5L16.67 19.875H18.725L18.8563 22.5H16.9625Z" fill="white" stroke="white" stroke-width="0.5"/>
<path d="M10.25 10.125C10.3495 10.125 10.4448 10.0855 10.5152 10.0152C10.5855 9.94484 10.625 9.84946 10.625 9.75V9C10.625 8.90054 10.5855 8.80516 10.5152 8.73483C10.4448 8.66451 10.3495 8.625 10.25 8.625C10.1505 8.625 10.0552 8.66451 9.98483 8.73483C9.91451 8.80516 9.875 8.90054 9.875 9V9.75C9.875 9.84946 9.91451 9.94484 9.98483 10.0152C10.0552 10.0855 10.1505 10.125 10.25 10.125ZM14.75 10.125C14.8495 10.125 14.9448 10.0855 15.0152 10.0152C15.0855 9.94484 15.125 9.84946 15.125 9.75V9C15.125 8.90054 15.0855 8.80516 15.0152 8.73483C14.9448 8.66451 14.8495 8.625 14.75 8.625C14.6505 8.625 14.5552 8.66451 14.4848 8.73483C14.4145 8.80516 14.375 8.90054 14.375 9V9.75C14.375 9.84946 14.4145 9.94484 14.4848 10.0152C14.5552 10.0855 14.6505 10.125 14.75 10.125ZM15.125 12H14.375C14.375 12.6098 13.5163 13.125 12.5 13.125C11.4837 13.125 10.625 12.6098 10.625 12H9.875C9.875 13.05 11.0281 13.875 12.5 13.875C13.9719 13.875 15.125 13.05 15.125 12Z" fill="white" stroke="white" stroke-width="0.5"/>
</svg>
