<svg width="24" height="25" viewBox="0 0 24 25" fill="none" xmlns="http://www.w3.org/2000/svg">
<g clip-path="url(#clip0_1191_949)">
<path d="M18.5775 19.9234H15.75L16.125 23.2984H7.875L8.25 19.9234H5.4225C5.51308 18.8188 6.00902 17.7868 6.81488 17.0259C7.62073 16.2651 8.67954 15.8292 9.7875 15.8022C9.87607 16.3254 10.147 16.8003 10.5524 17.1428C10.9577 17.4853 11.4712 17.6732 12.0019 17.6732C12.5325 17.6732 13.046 17.4853 13.4514 17.1428C13.8567 16.8003 14.1277 16.3254 14.2162 15.8022C15.3234 15.8306 16.381 16.2671 17.186 17.0277C17.9909 17.7884 18.4865 18.8196 18.5775 19.9234ZM18.7388 9.43466C18.8614 9.55567 18.9587 9.6999 19.0251 9.85893C19.0914 10.018 19.1253 10.1886 19.125 10.3609C19.125 10.709 18.9867 11.0428 18.7406 11.289C18.4944 11.5351 18.1606 11.6734 17.8125 11.6734H17.1975C17.2322 11.4249 17.2497 11.1743 17.25 10.9234V9.04841H17.8125C17.8753 9.04766 17.9381 9.05268 18 9.06341C18.2803 9.1029 18.5398 9.23333 18.7388 9.43466ZM6.75 9.04841V10.9234C6.75029 11.1743 6.76783 11.4249 6.8025 11.6734H6.1875C5.8394 11.6734 5.50556 11.5351 5.25942 11.289C5.01328 11.0428 4.875 10.709 4.875 10.3609C4.87638 10.0458 4.99063 9.74171 5.19703 9.50366C5.40343 9.26561 5.68831 9.10942 6 9.06341C6.06191 9.05268 6.12467 9.04766 6.1875 9.04841H6.75Z" stroke="#6F6F6F" stroke-width="0.5"/>
<path d="M18 9.04834V9.06334C17.9381 9.05261 17.8753 9.04759 17.8125 9.04834H16.6163C16.2672 9.04842 15.929 8.92675 15.66 8.70428C15.391 8.48181 15.208 8.17248 15.1425 7.82959L14.625 5.86084C14.6233 5.51326 14.4845 5.18039 14.2387 4.93461C13.9929 4.68883 13.6601 4.55002 13.3125 4.54834C12.9644 4.54834 12.6306 4.68662 12.3844 4.93276C12.1383 5.1789 12 5.51274 12 5.86084C11.9983 5.51326 11.8595 5.18039 11.6137 4.93461C11.3679 4.68883 11.0351 4.55002 10.6875 4.54834C10.3394 4.54834 10.0056 4.68662 9.75942 4.93276C9.51328 5.1789 9.375 5.51274 9.375 5.86084L8.8575 7.82959C8.79205 8.17248 8.60905 8.48181 8.34003 8.70428C8.07102 8.92675 7.73284 9.04842 7.38375 9.04834H6.1875C6.12467 9.04759 6.06191 9.05261 6 9.06334V5.29834C6 4.30378 6.39509 3.34995 7.09835 2.64669C7.80161 1.94343 8.75544 1.54834 9.75 1.54834H14.25C14.7425 1.54834 15.2301 1.64534 15.6851 1.83379C16.14 2.02225 16.5534 2.29847 16.9017 2.64669C17.2499 2.99491 17.5261 3.40831 17.7145 3.86328C17.903 4.31825 18 4.80588 18 5.29834V9.04834Z" stroke="#6F6F6F" stroke-width="0.5"/>
<path d="M15.1912 15.5508C16.3877 14.7263 17.2194 13.4715 17.5125 12.0483H17.8125C18.2598 12.0476 18.6887 11.8696 19.005 11.5533C19.3213 11.237 19.4993 10.8082 19.5 10.3608C19.5014 10.1396 19.4583 9.9204 19.3733 9.71618C19.2882 9.51197 19.163 9.32693 19.005 9.17209C18.8277 8.99373 18.6123 8.85783 18.375 8.77459V5.29834C18.3743 4.20454 17.9395 3.15573 17.166 2.38229C16.3926 1.60886 15.3438 1.17404 14.25 1.17334H9.75C8.6562 1.17404 7.60739 1.60886 6.83395 2.38229C6.06052 3.15573 5.6257 4.20454 5.625 5.29834V8.77459C5.29675 8.89064 5.01244 9.10538 4.81103 9.38937C4.60962 9.67335 4.50098 10.0127 4.5 10.3608C4.50069 10.8082 4.67871 11.237 4.99502 11.5533C5.31134 11.8696 5.74016 12.0476 6.1875 12.0483H6.4875C6.78065 13.4715 7.6123 14.7263 8.80875 15.5508C7.77727 15.7922 6.85193 16.3617 6.17169 17.1738C5.49145 17.9859 5.09303 18.9968 5.03625 20.0546L4.875 23.2796C4.87324 23.3305 4.88162 23.3812 4.89965 23.4289C4.91767 23.4765 4.94498 23.5201 4.98 23.5571C5.01451 23.5941 5.05633 23.6235 5.1028 23.6435C5.14928 23.6636 5.1994 23.6737 5.25 23.6733H18.75C18.8006 23.6737 18.8507 23.6636 18.8972 23.6435C18.9437 23.6235 18.9855 23.5941 19.02 23.5571C19.055 23.5201 19.0823 23.4765 19.1004 23.4289C19.1184 23.3812 19.1268 23.3305 19.125 23.2796L18.9637 20.0546C18.907 18.9968 18.5085 17.9859 17.8283 17.1738C17.1481 16.3617 16.2227 15.7922 15.1912 15.5508ZM18.4762 9.70084C18.5634 9.78718 18.6325 9.89001 18.6795 10.0033C18.7265 10.1166 18.7504 10.2382 18.75 10.3608C18.75 10.6095 18.6512 10.8479 18.4754 11.0238C18.2996 11.1996 18.0611 11.2983 17.8125 11.2983H17.6063C17.6138 11.1746 17.625 11.0508 17.625 10.9233V9.42334H17.8125C17.936 9.42307 18.0584 9.44748 18.1724 9.49513C18.2863 9.54279 18.3897 9.61272 18.4762 9.70084ZM6.1875 11.2983C5.93886 11.2983 5.7004 11.1996 5.52459 11.0238C5.34877 10.8479 5.25 10.6095 5.25 10.3608C5.25089 10.1125 5.34995 9.87453 5.52557 9.69891C5.70119 9.52329 5.93913 9.42423 6.1875 9.42334H6.375V10.9233C6.375 11.0508 6.38625 11.1746 6.39375 11.2983H6.1875ZM6.375 8.67334V5.29834C6.37639 4.40366 6.73241 3.54602 7.36505 2.91339C7.99768 2.28075 8.85532 1.92473 9.75 1.92334H14.25C15.1447 1.92473 16.0023 2.28075 16.635 2.91339C17.2676 3.54602 17.6236 4.40366 17.625 5.29834V8.67334H16.6163C16.3506 8.6724 16.0937 8.57792 15.8907 8.40649C15.6878 8.23506 15.5516 7.99762 15.5062 7.73584L15 5.80834C14.9837 5.37085 14.799 4.95657 14.4846 4.65193C14.1702 4.34729 13.7503 4.17584 13.3125 4.17334C13.0605 4.17318 12.8117 4.22973 12.5845 4.33878C12.3573 4.44784 12.1575 4.60661 12 4.80334C11.9629 4.757 11.9228 4.71315 11.88 4.67209C11.725 4.51308 11.5394 4.38696 11.3345 4.30126C11.1297 4.21557 10.9096 4.17206 10.6875 4.17334C10.2489 4.17313 9.82744 4.34369 9.51244 4.64889C9.19744 4.95409 9.01365 5.36995 9 5.80834L8.49 7.75834C8.44107 8.01584 8.30377 8.24818 8.1018 8.41523C7.89982 8.58229 7.64586 8.67358 7.38375 8.67334H6.375ZM7.125 10.9233V9.42334H7.38375C7.81616 9.42407 8.23549 9.27504 8.57046 9.00159C8.90544 8.72814 9.13539 8.34714 9.22125 7.92334L9.73875 5.95459C9.74641 5.92393 9.75019 5.89244 9.75 5.86084C9.75 5.6122 9.84877 5.37374 10.0246 5.19793C10.2004 5.02211 10.4389 4.92334 10.6875 4.92334C10.9359 4.92423 11.1738 5.02329 11.3494 5.19891C11.5251 5.37453 11.6241 5.61247 11.625 5.86084C11.625 5.9603 11.6645 6.05568 11.7348 6.126C11.8052 6.19633 11.9005 6.23584 12 6.23584C12.0995 6.23584 12.1948 6.19633 12.2652 6.126C12.3355 6.05568 12.375 5.9603 12.375 5.86084C12.375 5.6122 12.4738 5.37374 12.6496 5.19793C12.8254 5.02211 13.0639 4.92334 13.3125 4.92334C13.5609 4.92423 13.7988 5.02329 13.9744 5.19891C14.1501 5.37453 14.2491 5.61247 14.25 5.86084C14.2498 5.89244 14.2536 5.92393 14.2612 5.95459L14.775 7.90084C14.857 8.32913 15.0857 8.71545 15.4217 8.99333C15.7578 9.27121 16.1802 9.42327 16.6163 9.42334H16.875V10.9233C16.875 12.2163 16.3614 13.4562 15.4471 14.3705C14.5329 15.2847 13.2929 15.7983 12 15.7983C10.7071 15.7983 9.46709 15.2847 8.55285 14.3705C7.63861 13.4562 7.125 12.2163 7.125 10.9233ZM13.6537 16.3008C13.4958 16.6018 13.2586 16.8538 12.9678 17.0296C12.677 17.2054 12.3436 17.2984 12.0037 17.2984C11.6639 17.2984 11.3305 17.2054 11.0397 17.0296C10.7489 16.8538 10.5117 16.6018 10.3538 16.3008C10.8869 16.4656 11.4419 16.549 12 16.5483C12.5605 16.5487 13.1179 16.4653 13.6537 16.3008ZM7.5375 22.9233H5.64375L5.775 20.2983H7.83L7.5375 22.9233ZM15.705 22.9233H8.295L8.62125 19.9646C8.62766 19.9122 8.62295 19.8591 8.60745 19.8087C8.59194 19.7583 8.56597 19.7118 8.53125 19.6721C8.49544 19.6332 8.45197 19.6021 8.40357 19.5808C8.35517 19.5595 8.30288 19.5484 8.25 19.5483H5.85375C6.0179 18.6713 6.46176 17.871 7.11886 17.2673C7.77595 16.6636 8.61093 16.289 9.49875 16.1996C9.6635 16.7349 9.99549 17.2032 10.446 17.5359C10.8965 17.8687 11.4418 18.0482 12.0019 18.0482C12.5619 18.0482 13.1072 17.8687 13.5577 17.5359C14.0083 17.2032 14.3403 16.7349 14.505 16.1996C15.3919 16.2903 16.2258 16.6655 16.882 17.269C17.5382 17.8725 17.9817 18.6721 18.1462 19.5483H15.75C15.6971 19.5484 15.6448 19.5595 15.5964 19.5808C15.548 19.6021 15.5046 19.6332 15.4688 19.6721C15.434 19.7118 15.4081 19.7583 15.3926 19.8087C15.377 19.8591 15.3723 19.9122 15.3787 19.9646L15.705 22.9233ZM16.4625 22.9233L16.17 20.2983H18.225L18.3563 22.9233H16.4625Z" fill="#6F6F6F" stroke="#6F6F6F" stroke-width="0.5"/>
<path d="M9.75 10.5483C9.84946 10.5483 9.94484 10.5088 10.0152 10.4385C10.0855 10.3682 10.125 10.2728 10.125 10.1733V9.42334C10.125 9.32388 10.0855 9.2285 10.0152 9.15817C9.94484 9.08785 9.84946 9.04834 9.75 9.04834C9.65054 9.04834 9.55516 9.08785 9.48483 9.15817C9.41451 9.2285 9.375 9.32388 9.375 9.42334V10.1733C9.375 10.2728 9.41451 10.3682 9.48483 10.4385C9.55516 10.5088 9.65054 10.5483 9.75 10.5483ZM14.25 10.5483C14.3495 10.5483 14.4448 10.5088 14.5152 10.4385C14.5855 10.3682 14.625 10.2728 14.625 10.1733V9.42334C14.625 9.32388 14.5855 9.2285 14.5152 9.15817C14.4448 9.08785 14.3495 9.04834 14.25 9.04834C14.1505 9.04834 14.0552 9.08785 13.9848 9.15817C13.9145 9.2285 13.875 9.32388 13.875 9.42334V10.1733C13.875 10.2728 13.9145 10.3682 13.9848 10.4385C14.0552 10.5088 14.1505 10.5483 14.25 10.5483ZM14.625 12.4233H13.875C13.875 13.0331 13.0163 13.5483 12 13.5483C10.9837 13.5483 10.125 13.0331 10.125 12.4233H9.375C9.375 13.4733 10.5281 14.2983 12 14.2983C13.4719 14.2983 14.625 13.4733 14.625 12.4233Z" fill="#6F6F6F" stroke="#6F6F6F" stroke-width="0.5"/>
</g>
<defs>
<clipPath id="clip0_1191_949">
<rect width="24" height="24" fill="white" transform="translate(0 0.42334)"/>
</clipPath>
</defs>
</svg>
