<svg width="24" height="25" viewBox="0 0 24 25" fill="none" xmlns="http://www.w3.org/2000/svg">
<mask id="mask0_1191_974" style="mask-type:alpha" maskUnits="userSpaceOnUse" x="0" y="0" width="24" height="25">
<rect y="0.42334" width="24" height="24" fill="#D9D9D9"/>
</mask>
<g mask="url(#mask0_1191_974)">
<path d="M11.95 18.4233C12.3 18.4233 12.5958 18.3025 12.8375 18.0608C13.0792 17.8192 13.2 17.5233 13.2 17.1733C13.2 16.8233 13.0792 16.5275 12.8375 16.2858C12.5958 16.0442 12.3 15.9233 11.95 15.9233C11.6 15.9233 11.3042 16.0442 11.0625 16.2858C10.8208 16.5275 10.7 16.8233 10.7 17.1733C10.7 17.5233 10.8208 17.8192 11.0625 18.0608C11.3042 18.3025 11.6 18.4233 11.95 18.4233ZM11.05 14.5733H12.9C12.9 14.0233 12.9625 13.59 13.0875 13.2733C13.2125 12.9567 13.5667 12.5233 14.15 11.9733C14.5833 11.54 14.925 11.1275 15.175 10.7358C15.425 10.3442 15.55 9.87334 15.55 9.32334C15.55 8.39001 15.2083 7.67334 14.525 7.17334C13.8417 6.67334 13.0333 6.42334 12.1 6.42334C11.15 6.42334 10.3792 6.67334 9.7875 7.17334C9.19583 7.67334 8.78333 8.27334 8.55 8.97334L10.2 9.62334C10.2833 9.32334 10.4708 8.99834 10.7625 8.64834C11.0542 8.29834 11.5 8.12334 12.1 8.12334C12.6333 8.12334 13.0333 8.26917 13.3 8.56084C13.5667 8.85251 13.7 9.17334 13.7 9.52334C13.7 9.85667 13.6 10.1692 13.4 10.4608C13.2 10.7525 12.95 11.0233 12.65 11.2733C11.9167 11.9233 11.4667 12.415 11.3 12.7483C11.1333 13.0817 11.05 13.69 11.05 14.5733ZM12 22.4233C10.6167 22.4233 9.31667 22.1608 8.1 21.6358C6.88333 21.1108 5.825 20.3983 4.925 19.4983C4.025 18.5983 3.3125 17.54 2.7875 16.3233C2.2625 15.1067 2 13.8067 2 12.4233C2 11.04 2.2625 9.74001 2.7875 8.52334C3.3125 7.30667 4.025 6.24834 4.925 5.34834C5.825 4.44834 6.88333 3.73584 8.1 3.21084C9.31667 2.68584 10.6167 2.42334 12 2.42334C13.3833 2.42334 14.6833 2.68584 15.9 3.21084C17.1167 3.73584 18.175 4.44834 19.075 5.34834C19.975 6.24834 20.6875 7.30667 21.2125 8.52334C21.7375 9.74001 22 11.04 22 12.4233C22 13.8067 21.7375 15.1067 21.2125 16.3233C20.6875 17.54 19.975 18.5983 19.075 19.4983C18.175 20.3983 17.1167 21.1108 15.9 21.6358C14.6833 22.1608 13.3833 22.4233 12 22.4233ZM12 20.4233C14.2333 20.4233 16.125 19.6483 17.675 18.0983C19.225 16.5483 20 14.6567 20 12.4233C20 10.19 19.225 8.29834 17.675 6.74834C16.125 5.19834 14.2333 4.42334 12 4.42334C9.76667 4.42334 7.875 5.19834 6.325 6.74834C4.775 8.29834 4 10.19 4 12.4233C4 14.6567 4.775 16.5483 6.325 18.0983C7.875 19.6483 9.76667 20.4233 12 20.4233Z" fill="#6F6F6F"/>
</g>
</svg>
