<svg width="24" height="25" viewBox="0 0 24 25" fill="none" xmlns="http://www.w3.org/2000/svg">
<mask id="mask0_1191_940" style="mask-type:alpha" maskUnits="userSpaceOnUse" x="0" y="0" width="24" height="25">
<rect y="0.42334" width="24" height="24" fill="#D9D9D9"/>
</mask>
<g mask="url(#mask0_1191_940)">
<path d="M5 21.4233C4.45 21.4233 3.97917 21.2275 3.5875 20.8358C3.19583 20.4442 3 19.9733 3 19.4233V5.42334C3 4.87334 3.19583 4.40251 3.5875 4.01084C3.97917 3.61917 4.45 3.42334 5 3.42334H19C19.55 3.42334 20.0208 3.61917 20.4125 4.01084C20.8042 4.40251 21 4.87334 21 5.42334V19.4233C21 19.9733 20.8042 20.4442 20.4125 20.8358C20.0208 21.2275 19.55 21.4233 19 21.4233H5ZM5 19.4233H11V5.42334H5V19.4233ZM13 19.4233H19V12.4233H13V19.4233ZM13 10.4233H19V5.42334H13V10.4233Z" fill="#6F6F6F"/>
</g>
</svg>
