<svg width="24" height="25" viewBox="0 0 24 25" fill="none" xmlns="http://www.w3.org/2000/svg">
<path d="M8 7.42334V15.4233C8 16.5279 8.89543 17.4233 10 17.4233H16M8 7.42334V5.42334C8 4.31877 8.89543 3.42334 10 3.42334H14.5858C14.851 3.42334 15.1054 3.5287 15.2929 3.71623L19.7071 8.13045C19.8946 8.31798 20 8.57234 20 8.83755V15.4233C20 16.5279 19.1046 17.4233 18 17.4233H16M8 7.42334H6C4.89543 7.42334 4 8.31877 4 9.42334V19.4233C4 20.5279 4.89543 21.4233 6 21.4233H14C15.1046 21.4233 16 20.5279 16 19.4233V17.4233" stroke="#6F6F6F" stroke-width="2" stroke-linecap="round" stroke-linejoin="round"/>
</svg>
