<svg width="24" height="25" viewBox="0 0 24 25" fill="none" xmlns="http://www.w3.org/2000/svg">
<mask id="mask0_1191_969" style="mask-type:alpha" maskUnits="userSpaceOnUse" x="0" y="0" width="24" height="25">
<rect y="0.42334" width="24" height="24" fill="#D9D9D9"/>
</mask>
<g mask="url(#mask0_1191_969)">
<path d="M9.24922 22.4233L8.84922 19.2233C8.63255 19.14 8.42839 19.04 8.23672 18.9233C8.04505 18.8067 7.85755 18.6817 7.67422 18.5483L4.69922 19.7983L1.94922 15.0483L4.52422 13.0983C4.50755 12.9817 4.49922 12.8692 4.49922 12.7608V12.0858C4.49922 11.9775 4.50755 11.865 4.52422 11.7483L1.94922 9.79834L4.69922 5.04834L7.67422 6.29834C7.85755 6.16501 8.04922 6.04001 8.24922 5.92334C8.44922 5.80667 8.64922 5.70667 8.84922 5.62334L9.24922 2.42334H14.7492L15.1492 5.62334C15.3659 5.70667 15.5701 5.80667 15.7617 5.92334C15.9534 6.04001 16.1409 6.16501 16.3242 6.29834L19.2992 5.04834L22.0492 9.79834L19.4742 11.7483C19.4909 11.865 19.4992 11.9775 19.4992 12.0858V12.7608C19.4992 12.8692 19.4826 12.9817 19.4492 13.0983L22.0242 15.0483L19.2742 19.7983L16.3242 18.5483C16.1409 18.6817 15.9492 18.8067 15.7492 18.9233C15.5492 19.04 15.3492 19.14 15.1492 19.2233L14.7492 22.4233H9.24922ZM12.0492 15.9233C13.0159 15.9233 13.8409 15.5817 14.5242 14.8983C15.2076 14.215 15.5492 13.39 15.5492 12.4233C15.5492 11.4567 15.2076 10.6317 14.5242 9.94834C13.8409 9.26501 13.0159 8.92334 12.0492 8.92334C11.0659 8.92334 10.2367 9.26501 9.56172 9.94834C8.88672 10.6317 8.54922 11.4567 8.54922 12.4233C8.54922 13.39 8.88672 14.215 9.56172 14.8983C10.2367 15.5817 11.0659 15.9233 12.0492 15.9233ZM12.0492 13.9233C11.6326 13.9233 11.2784 13.7775 10.9867 13.4858C10.6951 13.1942 10.5492 12.84 10.5492 12.4233C10.5492 12.0067 10.6951 11.6525 10.9867 11.3608C11.2784 11.0692 11.6326 10.9233 12.0492 10.9233C12.4659 10.9233 12.8201 11.0692 13.1117 11.3608C13.4034 11.6525 13.5492 12.0067 13.5492 12.4233C13.5492 12.84 13.4034 13.1942 13.1117 13.4858C12.8201 13.7775 12.4659 13.9233 12.0492 13.9233ZM10.9992 20.4233H12.9742L13.3242 17.7733C13.8409 17.64 14.3201 17.4442 14.7617 17.1858C15.2034 16.9275 15.6076 16.615 15.9742 16.2483L18.4492 17.2733L19.4242 15.5733L17.2742 13.9483C17.3576 13.715 17.4159 13.4692 17.4492 13.2108C17.4826 12.9525 17.4992 12.69 17.4992 12.4233C17.4992 12.1567 17.4826 11.8942 17.4492 11.6358C17.4159 11.3775 17.3576 11.1317 17.2742 10.8983L19.4242 9.27334L18.4492 7.57334L15.9742 8.62334C15.6076 8.24001 15.2034 7.91917 14.7617 7.66084C14.3201 7.40251 13.8409 7.20667 13.3242 7.07334L12.9992 4.42334H11.0242L10.6742 7.07334C10.1576 7.20667 9.67839 7.40251 9.23672 7.66084C8.79505 7.91917 8.39089 8.23167 8.02422 8.59834L5.54922 7.57334L4.57422 9.27334L6.72422 10.8733C6.64089 11.1233 6.58255 11.3733 6.54922 11.6233C6.51589 11.8733 6.49922 12.14 6.49922 12.4233C6.49922 12.69 6.51589 12.9483 6.54922 13.1983C6.58255 13.4483 6.64089 13.6983 6.72422 13.9483L4.57422 15.5733L5.54922 17.2733L8.02422 16.2233C8.39089 16.6067 8.79505 16.9275 9.23672 17.1858C9.67839 17.4442 10.1576 17.64 10.6742 17.7733L10.9992 20.4233Z" fill="#6F6F6F"/>
</g>
</svg>
