<svg width="24" height="25" viewBox="0 0 24 25" fill="none" xmlns="http://www.w3.org/2000/svg">
<path d="M11.41 13.4234L13.71 15.7134C13.8037 15.8064 13.8781 15.917 13.9289 16.0389C13.9797 16.1607 14.0058 16.2914 14.0058 16.4234C14.0058 16.5555 13.9797 16.6862 13.9289 16.808C13.8781 16.9299 13.8037 17.0405 13.71 17.1334C13.617 17.2272 13.5064 17.3016 13.3846 17.3523C13.2627 17.4031 13.132 17.4292 13 17.4292C12.868 17.4292 12.7373 17.4031 12.6154 17.3523C12.4936 17.3016 12.383 17.2272 12.29 17.1334L8.29 13.1334C8.19896 13.0383 8.12759 12.9262 8.08 12.8034C7.97998 12.56 7.97998 12.2869 8.08 12.0434C8.12759 11.9207 8.19896 11.8085 8.29 11.7134L12.29 7.71344C12.3832 7.6202 12.4939 7.54624 12.6157 7.49578C12.7376 7.44532 12.8681 7.41935 13 7.41935C13.1319 7.41935 13.2624 7.44532 13.3842 7.49578C13.5061 7.54624 13.6168 7.6202 13.71 7.71344C13.8032 7.80668 13.8772 7.91737 13.9277 8.03919C13.9781 8.16101 14.0041 8.29158 14.0041 8.42344C14.0041 8.5553 13.9781 8.68587 13.9277 8.80769C13.8772 8.92951 13.8032 9.0402 13.71 9.13344L11.41 11.4234H21C21.2652 11.4234 21.5196 11.5288 21.7071 11.7163C21.8946 11.9039 22 12.1582 22 12.4234C22 12.6887 21.8946 12.943 21.7071 13.1305C21.5196 13.3181 21.2652 13.4234 21 13.4234H11.41ZM12 2.42344C13.8689 2.4151 15.7028 2.93065 17.2935 3.91163C18.8843 4.89261 20.1683 6.29975 21 7.97344C21.1193 8.21213 21.139 8.48846 21.0546 8.74164C20.9702 8.99481 20.7887 9.20409 20.55 9.32344C20.3113 9.44279 20.035 9.46242 19.7818 9.37803C19.5286 9.29364 19.3193 9.11213 19.2 8.87344C18.5678 7.59676 17.6062 6.51206 16.4145 5.73143C15.2227 4.9508 13.8442 4.50256 12.4212 4.43303C10.9983 4.36351 9.58262 4.67522 8.32048 5.33595C7.05834 5.99668 5.99553 6.98247 5.24189 8.19143C4.48825 9.4004 4.07112 10.7887 4.0336 12.2128C3.99608 13.637 4.33954 15.0453 5.02848 16.2922C5.71742 17.5392 6.72686 18.5796 7.95246 19.3059C9.17807 20.0321 10.5754 20.4179 12 20.4234C13.4911 20.4299 14.9538 20.0158 16.2203 19.2287C17.4868 18.4416 18.5056 17.3133 19.16 15.9734C19.2793 15.7347 19.4886 15.5532 19.7418 15.4688C19.995 15.3845 20.2713 15.4041 20.51 15.5234C20.7487 15.6428 20.9302 15.8521 21.0146 16.1052C21.099 16.3584 21.0793 16.6347 20.96 16.8734C20.1672 18.4689 18.9625 19.8237 17.4705 20.7975C15.9786 21.7713 14.2536 22.3288 12.4739 22.4124C10.6942 22.496 8.92451 22.1026 7.34785 21.2729C5.77119 20.4433 4.44482 19.2074 3.50593 17.6933C2.56704 16.1791 2.04973 14.4416 2.0075 12.6604C1.96527 10.8793 2.39967 9.11923 3.26575 7.56227C4.13184 6.00531 5.39816 4.70801 6.93373 3.80455C8.4693 2.90108 10.2184 2.42428 12 2.42344Z" fill="#171717"/>
</svg>
