<svg width="24" height="25" viewBox="0 0 24 25" fill="none" xmlns="http://www.w3.org/2000/svg">
<path d="M4.59375 17.2983C3.96332 17.2983 3.34705 17.1114 2.82287 16.7612C2.29869 16.4109 1.89014 15.9131 1.64889 15.3306C1.40763 14.7482 1.34451 14.1073 1.4675 13.489C1.59049 12.8707 1.89407 12.3027 2.33985 11.8569C2.78563 11.4112 3.35359 11.1076 3.9719 10.9846C4.59022 10.8616 5.23112 10.9247 5.81355 11.166C6.39599 11.4072 6.89381 11.8158 7.24406 12.34C7.59431 12.8641 7.78125 13.4804 7.78125 14.1108C7.78026 14.9559 7.44412 15.7661 6.84656 16.3636C6.249 16.9612 5.43882 17.2973 4.59375 17.2983ZM4.59375 12.0483C4.18583 12.0483 3.78706 12.1693 3.44789 12.3959C3.10871 12.6226 2.84436 12.9447 2.68825 13.3216C2.53214 13.6984 2.4913 14.1131 2.57088 14.5132C2.65046 14.9133 2.8469 15.2808 3.13534 15.5692C3.42379 15.8577 3.79129 16.0541 4.19138 16.1337C4.59146 16.2133 5.00616 16.1724 5.38304 16.0163C5.75991 15.8602 6.08203 15.5959 6.30866 15.2567C6.53529 14.9175 6.65625 14.5188 6.65625 14.1108C6.65526 13.5641 6.43764 13.0401 6.05106 12.6535C5.66448 12.267 5.14046 12.0493 4.59375 12.0483Z" fill="#6F6F6F" stroke="#6F6F6F" stroke-width="0.5"/>
<path d="M7.40625 21.7983H1.78125C1.63207 21.7983 1.48899 21.7391 1.3835 21.6336C1.27801 21.5281 1.21875 21.385 1.21875 21.2358V18.6108C1.21974 17.9647 1.47687 17.3453 1.93377 16.8884C2.39068 16.4315 3.01009 16.1743 3.65625 16.1733H5.53125C6.17741 16.1743 6.79682 16.4315 7.25373 16.8884C7.71063 17.3453 7.96776 17.9647 7.96875 18.6108V21.2358C7.96875 21.385 7.90949 21.5281 7.804 21.6336C7.69851 21.7391 7.55543 21.7983 7.40625 21.7983ZM2.34375 20.6733H6.84375V18.6108C6.84375 18.2627 6.70547 17.9289 6.45933 17.6828C6.21319 17.4366 5.87935 17.2983 5.53125 17.2983H3.65625C3.30815 17.2983 2.97431 17.4366 2.72817 17.6828C2.48203 17.9289 2.34375 18.2627 2.34375 18.6108V20.6733Z" fill="#6F6F6F" stroke="#6F6F6F" stroke-width="0.5"/>
<path d="M7.59375 19.5483C7.48549 19.5486 7.37947 19.5175 7.2884 19.459C7.19734 19.4005 7.1251 19.3169 7.08036 19.2183C7.03563 19.1197 7.02029 19.0103 7.03619 18.9032C7.05208 18.7961 7.09855 18.6959 7.17 18.6146L12.42 12.6146C12.5195 12.5022 12.6595 12.4339 12.8093 12.4248C12.9591 12.4156 13.1064 12.4664 13.2188 12.5658C13.3311 12.6653 13.3994 12.8053 13.4086 12.9551C13.4177 13.1049 13.367 13.2522 13.2675 13.3646L8.0175 19.3646C7.96405 19.4237 7.89858 19.4706 7.8255 19.5023C7.75242 19.534 7.6734 19.5497 7.59375 19.5483ZM22.2188 4.17334H3.84375C3.69457 4.17334 3.55149 4.11408 3.446 4.00859C3.34051 3.9031 3.28125 3.76002 3.28125 3.61084C3.28125 3.46166 3.34051 3.31858 3.446 3.21309C3.55149 3.1076 3.69457 3.04834 3.84375 3.04834H22.2188C22.3679 3.04834 22.511 3.1076 22.6165 3.21309C22.722 3.31858 22.7812 3.46166 22.7812 3.61084C22.7812 3.76002 22.722 3.9031 22.6165 4.00859C22.511 4.11408 22.3679 4.17334 22.2188 4.17334ZM22.2188 15.7983H14.3438C14.1946 15.7983 14.0515 15.7391 13.946 15.6336C13.8405 15.5281 13.7812 15.385 13.7812 15.2358C13.7812 15.0867 13.8405 14.9436 13.946 14.8381C14.0515 14.7326 14.1946 14.6733 14.3438 14.6733H22.2188C22.3679 14.6733 22.511 14.7326 22.6165 14.8381C22.722 14.9436 22.7812 15.0867 22.7812 15.2358C22.7812 15.385 22.722 15.5281 22.6165 15.6336C22.511 15.7391 22.3679 15.7983 22.2188 15.7983Z" fill="#6F6F6F" stroke="#6F6F6F" stroke-width="0.5"/>
<path d="M20.7188 15.7983C20.5696 15.7983 20.4265 15.7391 20.321 15.6336C20.2155 15.5281 20.1562 15.385 20.1562 15.2358V3.61084C20.1562 3.46166 20.2155 3.31858 20.321 3.21309C20.4265 3.1076 20.5696 3.04834 20.7188 3.04834C20.8679 3.04834 21.011 3.1076 21.1165 3.21309C21.222 3.31858 21.2812 3.46166 21.2812 3.61084V15.2358C21.2812 15.385 21.222 15.5281 21.1165 15.6336C21.011 15.7391 20.8679 15.7983 20.7188 15.7983ZM5.34375 9.42334C5.19457 9.42334 5.05149 9.36408 4.946 9.25859C4.84051 9.1531 4.78125 9.01002 4.78125 8.86084V3.61084C4.78125 3.46166 4.84051 3.31858 4.946 3.21309C5.05149 3.1076 5.19457 3.04834 5.34375 3.04834C5.49293 3.04834 5.63601 3.1076 5.7415 3.21309C5.84699 3.31858 5.90625 3.46166 5.90625 3.61084V8.86084C5.90625 9.01002 5.84699 9.1531 5.7415 9.25859C5.63601 9.36408 5.49293 9.42334 5.34375 9.42334ZM13.5938 7.54834H9.46875C9.31957 7.54834 9.17649 7.48908 9.071 7.38359C8.96551 7.2781 8.90625 7.13502 8.90625 6.98584C8.90625 6.83666 8.96551 6.69358 9.071 6.58809C9.17649 6.4826 9.31957 6.42334 9.46875 6.42334H13.5938C13.7429 6.42334 13.886 6.4826 13.9915 6.58809C14.097 6.69358 14.1562 6.83666 14.1562 6.98584C14.1562 7.13502 14.097 7.2781 13.9915 7.38359C13.886 7.48908 13.7429 7.54834 13.5938 7.54834ZM16.2188 10.5483H9.46875C9.31957 10.5483 9.17649 10.4891 9.071 10.3836C8.96551 10.2781 8.90625 10.135 8.90625 9.98584C8.90625 9.83666 8.96551 9.69358 9.071 9.58809C9.17649 9.4826 9.31957 9.42334 9.46875 9.42334H16.2188C16.3679 9.42334 16.511 9.4826 16.6165 9.58809C16.722 9.69358 16.7812 9.83666 16.7812 9.98584C16.7812 10.135 16.722 10.2781 16.6165 10.3836C16.511 10.4891 16.3679 10.5483 16.2188 10.5483Z" fill="#6F6F6F" stroke="#6F6F6F" stroke-width="0.5"/>
</svg>
