<svg width="25" height="24" viewBox="0 0 25 24" fill="none" xmlns="http://www.w3.org/2000/svg">
<path d="M8.5 7V15C8.5 16.1046 9.39543 17 10.5 17H16.5M8.5 7V5C8.5 3.89543 9.39543 3 10.5 3H15.0858C15.351 3 15.6054 3.10536 15.7929 3.29289L20.2071 7.70711C20.3946 7.89464 20.5 8.149 20.5 8.41421V15C20.5 16.1046 19.6046 17 18.5 17H16.5M8.5 7H6.5C5.39543 7 4.5 7.89543 4.5 9V19C4.5 20.1046 5.39543 21 6.5 21H14.5C15.6046 21 16.5 20.1046 16.5 19V17" stroke="white" stroke-width="2" stroke-linecap="round" stroke-linejoin="round"/>
</svg>
