<svg width="25" height="24" viewBox="0 0 25 24" fill="none" xmlns="http://www.w3.org/2000/svg">
<mask id="mask0_677_5118" style="mask-type:alpha" maskUnits="userSpaceOnUse" x="0" y="0" width="25" height="24">
<rect x="0.5" width="24" height="24" fill="#D9D9D9"/>
</mask>
<g mask="url(#mask0_677_5118)">
<path d="M9.7502 22L9.3502 18.8C9.13353 18.7167 8.92936 18.6167 8.7377 18.5C8.54603 18.3833 8.35853 18.2583 8.1752 18.125L5.2002 19.375L2.4502 14.625L5.0252 12.675C5.00853 12.5583 5.0002 12.4458 5.0002 12.3375V11.6625C5.0002 11.5542 5.00853 11.4417 5.0252 11.325L2.4502 9.375L5.2002 4.625L8.1752 5.875C8.35853 5.74167 8.5502 5.61667 8.7502 5.5C8.9502 5.38333 9.1502 5.28333 9.3502 5.2L9.7502 2H15.2502L15.6502 5.2C15.8669 5.28333 16.071 5.38333 16.2627 5.5C16.4544 5.61667 16.6419 5.74167 16.8252 5.875L19.8002 4.625L22.5502 9.375L19.9752 11.325C19.9919 11.4417 20.0002 11.5542 20.0002 11.6625V12.3375C20.0002 12.4458 19.9835 12.5583 19.9502 12.675L22.5252 14.625L19.7752 19.375L16.8252 18.125C16.6419 18.2583 16.4502 18.3833 16.2502 18.5C16.0502 18.6167 15.8502 18.7167 15.6502 18.8L15.2502 22H9.7502ZM12.5502 15.5C13.5169 15.5 14.3419 15.1583 15.0252 14.475C15.7085 13.7917 16.0502 12.9667 16.0502 12C16.0502 11.0333 15.7085 10.2083 15.0252 9.525C14.3419 8.84167 13.5169 8.5 12.5502 8.5C11.5669 8.5 10.7377 8.84167 10.0627 9.525C9.3877 10.2083 9.0502 11.0333 9.0502 12C9.0502 12.9667 9.3877 13.7917 10.0627 14.475C10.7377 15.1583 11.5669 15.5 12.5502 15.5ZM12.5502 13.5C12.1335 13.5 11.7794 13.3542 11.4877 13.0625C11.196 12.7708 11.0502 12.4167 11.0502 12C11.0502 11.5833 11.196 11.2292 11.4877 10.9375C11.7794 10.6458 12.1335 10.5 12.5502 10.5C12.9669 10.5 13.321 10.6458 13.6127 10.9375C13.9044 11.2292 14.0502 11.5833 14.0502 12C14.0502 12.4167 13.9044 12.7708 13.6127 13.0625C13.321 13.3542 12.9669 13.5 12.5502 13.5ZM11.5002 20H13.4752L13.8252 17.35C14.3419 17.2167 14.821 17.0208 15.2627 16.7625C15.7044 16.5042 16.1085 16.1917 16.4752 15.825L18.9502 16.85L19.9252 15.15L17.7752 13.525C17.8585 13.2917 17.9169 13.0458 17.9502 12.7875C17.9835 12.5292 18.0002 12.2667 18.0002 12C18.0002 11.7333 17.9835 11.4708 17.9502 11.2125C17.9169 10.9542 17.8585 10.7083 17.7752 10.475L19.9252 8.85L18.9502 7.15L16.4752 8.2C16.1085 7.81667 15.7044 7.49583 15.2627 7.2375C14.821 6.97917 14.3419 6.78333 13.8252 6.65L13.5002 4H11.5252L11.1752 6.65C10.6585 6.78333 10.1794 6.97917 9.7377 7.2375C9.29603 7.49583 8.89186 7.80833 8.5252 8.175L6.0502 7.15L5.0752 8.85L7.2252 10.45C7.14186 10.7 7.08353 10.95 7.0502 11.2C7.01686 11.45 7.0002 11.7167 7.0002 12C7.0002 12.2667 7.01686 12.525 7.0502 12.775C7.08353 13.025 7.14186 13.275 7.2252 13.525L5.0752 15.15L6.0502 16.85L8.5252 15.8C8.89186 16.1833 9.29603 16.5042 9.7377 16.7625C10.1794 17.0208 10.6585 17.2167 11.1752 17.35L11.5002 20Z" fill="white"/>
</g>
</svg>
