<svg width="25" height="24" viewBox="0 0 25 24" fill="none" xmlns="http://www.w3.org/2000/svg">
<path d="M11.91 13.0001L14.21 15.2901C14.3037 15.3831 14.3781 15.4937 14.4289 15.6155C14.4797 15.7374 14.5058 15.8681 14.5058 16.0001C14.5058 16.1321 14.4797 16.2628 14.4289 16.3847C14.3781 16.5065 14.3037 16.6171 14.21 16.7101C14.117 16.8038 14.0064 16.8782 13.8846 16.929C13.7627 16.9798 13.632 17.0059 13.5 17.0059C13.368 17.0059 13.2373 16.9798 13.1154 16.929C12.9936 16.8782 12.883 16.8038 12.79 16.7101L8.79 12.7101C8.69896 12.615 8.62759 12.5029 8.58 12.3801C8.47998 12.1366 8.47998 11.8636 8.58 11.6201C8.62759 11.4973 8.69896 11.3852 8.79 11.2901L12.79 7.2901C12.8832 7.19686 12.9939 7.1229 13.1157 7.07244C13.2376 7.02198 13.3681 6.99601 13.5 6.99601C13.6319 6.99601 13.7624 7.02198 13.8842 7.07244C14.0061 7.1229 14.1168 7.19686 14.21 7.2901C14.3032 7.38334 14.3772 7.49403 14.4277 7.61585C14.4781 7.73767 14.5041 7.86824 14.5041 8.0001C14.5041 8.13196 14.4781 8.26253 14.4277 8.38435C14.3772 8.50617 14.3032 8.61686 14.21 8.7101L11.91 11.0001H21.5C21.7652 11.0001 22.0196 11.1055 22.2071 11.293C22.3946 11.4805 22.5 11.7349 22.5 12.0001C22.5 12.2653 22.3946 12.5197 22.2071 12.7072C22.0196 12.8947 21.7652 13.0001 21.5 13.0001H11.91ZM12.5 2.0001C14.3689 1.99176 16.2028 2.50731 17.7935 3.48829C19.3843 4.46927 20.6683 5.87641 21.5 7.5501C21.6193 7.78879 21.639 8.06512 21.5546 8.3183C21.4702 8.57147 21.2887 8.78075 21.05 8.9001C20.8113 9.01945 20.535 9.03908 20.2818 8.95469C20.0286 8.8703 19.8193 8.68879 19.7 8.4501C19.0678 7.17342 18.1062 6.08872 16.9145 5.30809C15.7227 4.52746 14.3442 4.07922 12.9212 4.00969C11.4983 3.94017 10.0826 4.25188 8.82048 4.91261C7.55834 5.57334 6.49553 6.55913 5.74189 7.7681C4.98825 8.97706 4.57112 10.3653 4.5336 11.7895C4.49608 13.2136 4.83954 14.6219 5.52848 15.8689C6.21742 17.1159 7.22686 18.1563 8.45246 18.8825C9.67807 19.6088 11.0754 19.9946 12.5 20.0001C13.9911 20.0066 15.4538 19.5925 16.7203 18.8053C17.9868 18.0182 19.0056 16.89 19.66 15.5501C19.7793 15.3114 19.9886 15.1299 20.2418 15.0455C20.495 14.9611 20.7713 14.9808 21.01 15.1001C21.2487 15.2194 21.4302 15.4287 21.5146 15.6819C21.599 15.9351 21.5793 16.2114 21.46 16.4501C20.6672 18.0456 19.4625 19.4003 17.9705 20.3741C16.4786 21.348 14.7536 21.9055 12.9739 21.9891C11.1942 22.0727 9.42451 21.6793 7.84785 20.8496C6.27119 20.0199 4.94482 18.7841 4.00593 17.2699C3.06704 15.7557 2.54973 14.0182 2.5075 12.2371C2.46527 10.456 2.89967 8.69589 3.76575 7.13893C4.63184 5.58197 5.89816 4.28467 7.43373 3.38121C8.9693 2.47774 10.7184 2.00094 12.5 2.0001Z" fill="white"/>
</svg>
