<svg width="43" height="42" viewBox="0 0 43 42" fill="none" xmlns="http://www.w3.org/2000/svg">
<g clip-path="url(#clip0_1277_7390)">
<g filter="url(#filter0_iii_1277_7390)">
<path d="M0.714844 19.6341C0.714844 8.79051 9.50535 0 20.349 0H22.3978C33.6186 0 42.7148 9.09626 42.7148 20.3171V21.6829C42.7148 32.9037 33.6186 42 22.3978 42H21.7148C10.1169 42 0.714844 32.598 0.714844 21V19.6341Z" fill="url(#paint0_radial_1277_7390)"/>
</g>
<mask id="mask0_1277_7390" style="mask-type:alpha" maskUnits="userSpaceOnUse" x="9" y="23" width="25" height="14">
<path d="M13.0412 23.4756C12.0838 23.4756 11.6051 23.4756 11.0687 23.718C10.3405 24.0471 9.56492 25.1164 9.47816 25.9108C9.41426 26.4959 9.50956 26.7877 9.70015 27.3713C10.3074 29.2306 11.3467 30.94 12.7556 32.349C15.109 34.7023 18.3008 36.0244 21.629 36.0244C24.9571 36.0244 28.1489 34.7023 30.5023 32.349C31.9706 30.8806 33.0375 29.0858 33.6323 27.1352C33.8099 26.5526 33.8987 26.2614 33.8312 25.7197C33.7385 24.9763 33.0183 24.0037 32.3342 23.6982C31.8358 23.4756 31.3786 23.4756 30.4643 23.4756L21.629 23.4756L13.0412 23.4756Z" fill="url(#paint1_linear_1277_7390)"/>
</mask>
<g mask="url(#mask0_1277_7390)">
<g filter="url(#filter1_i_1277_7390)">
<path d="M13.0412 23.4756C12.0838 23.4756 11.6051 23.4756 11.0687 23.718C10.3405 24.0471 9.56492 25.1164 9.47816 25.9108C9.41426 26.4959 9.50956 26.7877 9.70015 27.3713C10.3074 29.2306 11.3467 30.94 12.7556 32.349C15.109 34.7023 18.3008 36.0244 21.629 36.0244C24.9571 36.0244 28.1489 34.7023 30.5023 32.349C31.9706 30.8806 33.0375 29.0858 33.6323 27.1352C33.8099 26.5526 33.8987 26.2614 33.8312 25.7197C33.7385 24.9763 33.0183 24.0037 32.3342 23.6982C31.8358 23.4756 31.3786 23.4756 30.4643 23.4756L21.629 23.4756L13.0412 23.4756Z" fill="url(#paint2_linear_1277_7390)"/>
</g>
<g filter="url(#filter2_i_1277_7390)">
<path d="M9.499 24.1892C9.02415 23.1003 9.78932 21.8536 10.9773 21.8536H32.089C32.3465 21.8536 31.7027 21.8536 31.8767 21.8839C32.6849 22.0242 33.7313 23.8151 33.4568 24.5881C33.3976 24.7545 34.275 23.1978 33.9241 23.8205C33.4786 24.6108 33.4115 25.9512 32.5042 25.9512H10.2508C9.59264 25.9512 9.76208 24.7925 9.499 24.1892Z" fill="white"/>
</g>
<g filter="url(#filter3_iii_1277_7390)">
<ellipse cx="21.543" cy="33.6341" rx="4.95122" ry="3.92683" fill="url(#paint3_radial_1277_7390)"/>
</g>
</g>
<g filter="url(#filter4_i_1277_7390)">
<path d="M18.0498 19.7195C18.7532 19.7195 19.3372 19.1427 19.1863 18.4557C18.9468 17.3653 18.4 16.3562 17.5982 15.5544C16.4936 14.4498 14.9954 13.8292 13.4332 13.8292C11.871 13.8292 10.3728 14.4498 9.26818 15.5544C8.50776 16.3149 7.97672 17.2618 7.71961 18.2877C7.52544 19.0625 8.19046 19.7195 8.98917 19.7195C9.73797 19.7195 10.3196 19.0845 10.6379 18.4068C10.7884 18.0862 10.9943 17.791 11.2495 17.5358C11.8287 16.9566 12.6142 16.6312 13.4332 16.6312C14.2523 16.6312 15.0378 16.9566 15.6169 17.5358C15.8307 17.7495 16.0099 17.9914 16.1509 18.2527C16.5518 18.9955 17.2057 19.7195 18.0498 19.7195Z" fill="#C4C4C4"/>
<path d="M18.0498 19.7195C18.7532 19.7195 19.3372 19.1427 19.1863 18.4557C18.9468 17.3653 18.4 16.3562 17.5982 15.5544C16.4936 14.4498 14.9954 13.8292 13.4332 13.8292C11.871 13.8292 10.3728 14.4498 9.26818 15.5544C8.50776 16.3149 7.97672 17.2618 7.71961 18.2877C7.52544 19.0625 8.19046 19.7195 8.98917 19.7195C9.73797 19.7195 10.3196 19.0845 10.6379 18.4068C10.7884 18.0862 10.9943 17.791 11.2495 17.5358C11.8287 16.9566 12.6142 16.6312 13.4332 16.6312C14.2523 16.6312 15.0378 16.9566 15.6169 17.5358C15.8307 17.7495 16.0099 17.9914 16.1509 18.2527C16.5518 18.9955 17.2057 19.7195 18.0498 19.7195Z" fill="#221725"/>
</g>
<g filter="url(#filter5_i_1277_7390)">
<path d="M34.6104 19.7195C35.3138 19.7195 35.8978 19.1427 35.7469 18.4557C35.5073 17.3653 34.9605 16.3562 34.1588 15.5544C33.0542 14.4498 31.5559 13.8292 29.9938 13.8292C28.4316 13.8292 26.9334 14.4498 25.8287 15.5544C25.0683 16.3149 24.5373 17.2618 24.2802 18.2877C24.086 19.0625 24.751 19.7195 25.5497 19.7195C26.2985 19.7195 26.8801 19.0845 27.1984 18.4068C27.3489 18.0862 27.5549 17.791 27.8101 17.5358C28.3892 16.9566 29.1747 16.6312 29.9938 16.6312C30.8128 16.6312 31.5983 16.9566 32.1775 17.5358C32.3912 17.7495 32.5704 17.9914 32.7114 18.2527C33.1123 18.9955 33.7663 19.7195 34.6104 19.7195Z" fill="#C4C4C4"/>
<path d="M34.6104 19.7195C35.3138 19.7195 35.8978 19.1427 35.7469 18.4557C35.5073 17.3653 34.9605 16.3562 34.1588 15.5544C33.0542 14.4498 31.5559 13.8292 29.9938 13.8292C28.4316 13.8292 26.9334 14.4498 25.8287 15.5544C25.0683 16.3149 24.5373 17.2618 24.2802 18.2877C24.086 19.0625 24.751 19.7195 25.5497 19.7195C26.2985 19.7195 26.8801 19.0845 27.1984 18.4068C27.3489 18.0862 27.5549 17.791 27.8101 17.5358C28.3892 16.9566 29.1747 16.6312 29.9938 16.6312C30.8128 16.6312 31.5983 16.9566 32.1775 17.5358C32.3912 17.7495 32.5704 17.9914 32.7114 18.2527C33.1123 18.9955 33.7663 19.7195 34.6104 19.7195Z" fill="#221725"/>
</g>
</g>
<defs>
<filter id="filter0_iii_1277_7390" x="-1.16321" y="-4.09756" width="47.4634" height="55.6585" filterUnits="userSpaceOnUse" color-interpolation-filters="sRGB">
<feFlood flood-opacity="0" result="BackgroundImageFix"/>
<feBlend mode="normal" in="SourceGraphic" in2="BackgroundImageFix" result="shape"/>
<feColorMatrix in="SourceAlpha" type="matrix" values="0 0 0 0 0 0 0 0 0 0 0 0 0 0 0 0 0 0 127 0" result="hardAlpha"/>
<feMorphology radius="1.36585" operator="erode" in="SourceAlpha" result="effect1_innerShadow_1277_7390"/>
<feOffset dx="3.58537" dy="12.4634"/>
<feGaussianBlur stdDeviation="4.09756"/>
<feComposite in2="hardAlpha" operator="arithmetic" k2="-1" k3="1"/>
<feColorMatrix type="matrix" values="0 0 0 0 0.682806 0 0 0 0 0.0652778 0 0 0 0 0.783333 0 0 0 0.14 0"/>
<feBlend mode="normal" in2="shape" result="effect1_innerShadow_1277_7390"/>
<feColorMatrix in="SourceAlpha" type="matrix" values="0 0 0 0 0 0 0 0 0 0 0 0 0 0 0 0 0 0 127 0" result="hardAlpha"/>
<feOffset dy="-4.09756"/>
<feGaussianBlur stdDeviation="2.64634"/>
<feComposite in2="hardAlpha" operator="arithmetic" k2="-1" k3="1"/>
<feColorMatrix type="matrix" values="0 0 0 0 0.943639 0 0 0 0 0.223611 0 0 0 0 0.958333 0 0 0 0.44 0"/>
<feBlend mode="normal" in2="effect1_innerShadow_1277_7390" result="effect2_innerShadow_1277_7390"/>
<feColorMatrix in="SourceAlpha" type="matrix" values="0 0 0 0 0 0 0 0 0 0 0 0 0 0 0 0 0 0 127 0" result="hardAlpha"/>
<feOffset dx="-1.87805" dy="5.12195"/>
<feGaussianBlur stdDeviation="2.64634"/>
<feComposite in2="hardAlpha" operator="arithmetic" k2="-1" k3="1"/>
<feColorMatrix type="matrix" values="0 0 0 0 1 0 0 0 0 0.766722 0 0 0 0 0.693056 0 0 0 0.68 0"/>
<feBlend mode="normal" in2="effect2_innerShadow_1277_7390" result="effect3_innerShadow_1277_7390"/>
</filter>
<filter id="filter1_i_1277_7390" x="9.45898" y="23.4756" width="24.3945" height="13.2318" filterUnits="userSpaceOnUse" color-interpolation-filters="sRGB">
<feFlood flood-opacity="0" result="BackgroundImageFix"/>
<feBlend mode="normal" in="SourceGraphic" in2="BackgroundImageFix" result="shape"/>
<feColorMatrix in="SourceAlpha" type="matrix" values="0 0 0 0 0 0 0 0 0 0 0 0 0 0 0 0 0 0 127 0" result="hardAlpha"/>
<feOffset dy="0.682927"/>
<feGaussianBlur stdDeviation="1.36585"/>
<feComposite in2="hardAlpha" operator="arithmetic" k2="-1" k3="1"/>
<feColorMatrix type="matrix" values="0 0 0 0 0 0 0 0 0 0 0 0 0 0 0 0 0 0 0.25 0"/>
<feBlend mode="normal" in2="shape" result="effect1_innerShadow_1277_7390"/>
</filter>
<filter id="filter2_i_1277_7390" x="9.35547" y="21.3414" width="24.6523" height="4.60973" filterUnits="userSpaceOnUse" color-interpolation-filters="sRGB">
<feFlood flood-opacity="0" result="BackgroundImageFix"/>
<feBlend mode="normal" in="SourceGraphic" in2="BackgroundImageFix" result="shape"/>
<feColorMatrix in="SourceAlpha" type="matrix" values="0 0 0 0 0 0 0 0 0 0 0 0 0 0 0 0 0 0 127 0" result="hardAlpha"/>
<feOffset dy="-0.512195"/>
<feGaussianBlur stdDeviation="1.36585"/>
<feComposite in2="hardAlpha" operator="arithmetic" k2="-1" k3="1"/>
<feColorMatrix type="matrix" values="0 0 0 0 0 0 0 0 0 0 0 0 0 0 0 0 0 0 0.47 0"/>
<feBlend mode="normal" in2="shape" result="effect1_innerShadow_1277_7390"/>
</filter>
<filter id="filter3_iii_1277_7390" x="16.0796" y="28" width="10.4145" height="10.2439" filterUnits="userSpaceOnUse" color-interpolation-filters="sRGB">
<feFlood flood-opacity="0" result="BackgroundImageFix"/>
<feBlend mode="normal" in="SourceGraphic" in2="BackgroundImageFix" result="shape"/>
<feColorMatrix in="SourceAlpha" type="matrix" values="0 0 0 0 0 0 0 0 0 0 0 0 0 0 0 0 0 0 127 0" result="hardAlpha"/>
<feOffset dy="0.682927"/>
<feGaussianBlur stdDeviation="0.853659"/>
<feComposite in2="hardAlpha" operator="arithmetic" k2="-1" k3="1"/>
<feColorMatrix type="matrix" values="0 0 0 0 0 0 0 0 0 0 0 0 0 0 0 0 0 0 0.25 0"/>
<feBlend mode="normal" in2="shape" result="effect1_innerShadow_1277_7390"/>
<feColorMatrix in="SourceAlpha" type="matrix" values="0 0 0 0 0 0 0 0 0 0 0 0 0 0 0 0 0 0 127 0" result="hardAlpha"/>
<feOffset dx="-0.512195" dy="0.682927"/>
<feGaussianBlur stdDeviation="0.341463"/>
<feComposite in2="hardAlpha" operator="arithmetic" k2="-1" k3="1"/>
<feColorMatrix type="matrix" values="0 0 0 0 1 0 0 0 0 1 0 0 0 0 1 0 0 0 0.29 0"/>
<feBlend mode="normal" in2="effect1_innerShadow_1277_7390" result="effect2_innerShadow_1277_7390"/>
<feColorMatrix in="SourceAlpha" type="matrix" values="0 0 0 0 0 0 0 0 0 0 0 0 0 0 0 0 0 0 127 0" result="hardAlpha"/>
<feOffset dy="-1.70732"/>
<feGaussianBlur stdDeviation="0.853659"/>
<feComposite in2="hardAlpha" operator="arithmetic" k2="-1" k3="1"/>
<feColorMatrix type="matrix" values="0 0 0 0 0.828932 0 0 0 0 0.0596354 0 0 0 0 0.954167 0 0 0 0.6 0"/>
<feBlend mode="normal" in2="effect2_innerShadow_1277_7390" result="effect3_innerShadow_1277_7390"/>
</filter>
<filter id="filter4_i_1277_7390" x="7.68555" y="13.8292" width="11.5254" height="5.89026" filterUnits="userSpaceOnUse" color-interpolation-filters="sRGB">
<feFlood flood-opacity="0" result="BackgroundImageFix"/>
<feBlend mode="normal" in="SourceGraphic" in2="BackgroundImageFix" result="shape"/>
<feColorMatrix in="SourceAlpha" type="matrix" values="0 0 0 0 0 0 0 0 0 0 0 0 0 0 0 0 0 0 127 0" result="hardAlpha"/>
<feMorphology radius="4.51585" operator="dilate" in="SourceAlpha" result="effect1_innerShadow_1277_7390"/>
<feOffset dx="1.57073" dy="-1.19512"/>
<feGaussianBlur stdDeviation="1.76707"/>
<feComposite in2="hardAlpha" operator="arithmetic" k2="-1" k3="1"/>
<feColorMatrix type="matrix" values="0 0 0 0 0.462111 0 0 0 0 0.203767 0 0 0 0 0.504167 0 0 0 0.35 0"/>
<feBlend mode="normal" in2="shape" result="effect1_innerShadow_1277_7390"/>
</filter>
<filter id="filter5_i_1277_7390" x="24.2461" y="13.8292" width="11.5254" height="5.89026" filterUnits="userSpaceOnUse" color-interpolation-filters="sRGB">
<feFlood flood-opacity="0" result="BackgroundImageFix"/>
<feBlend mode="normal" in="SourceGraphic" in2="BackgroundImageFix" result="shape"/>
<feColorMatrix in="SourceAlpha" type="matrix" values="0 0 0 0 0 0 0 0 0 0 0 0 0 0 0 0 0 0 127 0" result="hardAlpha"/>
<feMorphology radius="4.51585" operator="dilate" in="SourceAlpha" result="effect1_innerShadow_1277_7390"/>
<feOffset dx="1.57073" dy="-1.53659"/>
<feGaussianBlur stdDeviation="1.76707"/>
<feComposite in2="hardAlpha" operator="arithmetic" k2="-1" k3="1"/>
<feColorMatrix type="matrix" values="0 0 0 0 0.462111 0 0 0 0 0.203767 0 0 0 0 0.504167 0 0 0 0.35 0"/>
<feBlend mode="normal" in2="shape" result="effect1_innerShadow_1277_7390"/>
</filter>
<radialGradient id="paint0_radial_1277_7390" cx="0" cy="0" r="1" gradientUnits="userSpaceOnUse" gradientTransform="translate(19.3246 2.73171) rotate(86.5167) scale(39.341)">
<stop offset="0.576389" stop-color="#FFBB0C"/>
<stop offset="1" stop-color="#FFC907"/>
</radialGradient>
<linearGradient id="paint1_linear_1277_7390" x1="21.629" y1="36.0244" x2="19.068" y2="21.3415" gradientUnits="userSpaceOnUse">
<stop stop-color="#FB39A2"/>
<stop offset="1" stop-color="#C520FF"/>
</linearGradient>
<linearGradient id="paint2_linear_1277_7390" x1="21.629" y1="36.0244" x2="13.946" y2="19.8049" gradientUnits="userSpaceOnUse">
<stop stop-color="#3A2EC0"/>
<stop offset="1" stop-color="#FF20C1"/>
</linearGradient>
<radialGradient id="paint3_radial_1277_7390" cx="0" cy="0" r="1" gradientUnits="userSpaceOnUse" gradientTransform="translate(21.4223 30.7608) rotate(88.9826) scale(6.80119 8.57441)">
<stop stop-color="#FC4141"/>
<stop offset="1" stop-color="#FF0F0F"/>
</radialGradient>
<clipPath id="clip0_1277_7390">
<rect width="42" height="42" fill="white" transform="translate(0.714844)"/>
</clipPath>
</defs>
</svg>
