<svg width="43" height="42" viewBox="0 0 43 42" fill="none" xmlns="http://www.w3.org/2000/svg">
<g clip-path="url(#clip0_1277_7334)">
<g filter="url(#filter0_iii_1277_7334)">
<path d="M0.283203 19.6341C0.283203 8.79051 9.07371 0 19.9173 0H21.9661C33.1869 0 42.2832 9.09626 42.2832 20.3171V21.6829C42.2832 32.9037 33.1869 42 21.9661 42H21.2832C9.68522 42 0.283203 32.598 0.283203 21V19.6341Z" fill="url(#paint0_radial_1277_7334)"/>
</g>
<g filter="url(#filter1_i_1277_7334)">
<path d="M17.6182 18.098C18.3216 18.098 18.9056 18.6748 18.7547 19.3618C18.5151 20.4522 17.9684 21.4613 17.1666 22.2631C16.062 23.3677 14.5638 23.9883 13.0016 23.9883C11.4394 23.9883 9.94118 23.3677 8.83654 22.2631C8.07612 21.5026 7.54508 20.5557 7.28797 19.5298C7.0938 18.755 7.75882 18.098 8.55753 18.098C9.30633 18.098 9.88795 18.733 10.2062 19.4107C10.3568 19.7313 10.5627 20.0265 10.8179 20.2817C11.397 20.8609 12.1825 21.1863 13.0016 21.1863C13.8206 21.1863 14.6061 20.8609 15.1853 20.2817C15.399 20.068 15.5782 19.8261 15.7192 19.5648C16.1201 18.822 16.7741 18.098 17.6182 18.098Z" fill="#C4C4C4"/>
<path d="M17.6182 18.098C18.3216 18.098 18.9056 18.6748 18.7547 19.3618C18.5151 20.4522 17.9684 21.4613 17.1666 22.2631C16.062 23.3677 14.5638 23.9883 13.0016 23.9883C11.4394 23.9883 9.94118 23.3677 8.83654 22.2631C8.07612 21.5026 7.54508 20.5557 7.28797 19.5298C7.0938 18.755 7.75882 18.098 8.55753 18.098C9.30633 18.098 9.88795 18.733 10.2062 19.4107C10.3568 19.7313 10.5627 20.0265 10.8179 20.2817C11.397 20.8609 12.1825 21.1863 13.0016 21.1863C13.8206 21.1863 14.6061 20.8609 15.1853 20.2817C15.399 20.068 15.5782 19.8261 15.7192 19.5648C16.1201 18.822 16.7741 18.098 17.6182 18.098Z" fill="#221725"/>
</g>
<g filter="url(#filter2_i_1277_7334)">
<path d="M34.1787 18.098C34.8821 18.098 35.4661 18.6748 35.3152 19.3618C35.0757 20.4522 34.5289 21.4613 33.7271 22.2631C32.6225 23.3677 31.1243 23.9883 29.5621 23.9883C27.9999 23.9883 26.5017 23.3677 25.3971 22.2631C24.6367 21.5026 24.1056 20.5557 23.8485 19.5298C23.6543 18.755 24.3194 18.098 25.1181 18.098C25.8669 18.098 26.4485 18.733 26.7668 19.4107C26.9173 19.7313 27.1232 20.0265 27.3784 20.2817C27.9576 20.8609 28.7431 21.1863 29.5621 21.1863C30.3812 21.1863 31.1667 20.8609 31.7458 20.2817C31.9596 20.068 32.1388 19.8261 32.2798 19.5648C32.6807 18.822 33.3346 18.098 34.1787 18.098Z" fill="#C4C4C4"/>
<path d="M34.1787 18.098C34.8821 18.098 35.4661 18.6748 35.3152 19.3618C35.0757 20.4522 34.5289 21.4613 33.7271 22.2631C32.6225 23.3677 31.1243 23.9883 29.5621 23.9883C27.9999 23.9883 26.5017 23.3677 25.3971 22.2631C24.6367 21.5026 24.1056 20.5557 23.8485 19.5298C23.6543 18.755 24.3194 18.098 25.1181 18.098C25.8669 18.098 26.4485 18.733 26.7668 19.4107C26.9173 19.7313 27.1232 20.0265 27.3784 20.2817C27.9576 20.8609 28.7431 21.1863 29.5621 21.1863C30.3812 21.1863 31.1667 20.8609 31.7458 20.2817C31.9596 20.068 32.1388 19.8261 32.2798 19.5648C32.6807 18.822 33.3346 18.098 34.1787 18.098Z" fill="#221725"/>
</g>
<g filter="url(#filter3_diiii_1277_7334)">
<mask id="path-4-inside-1_1277_7334" fill="white">
<path d="M13.3511 32.3361C12.6569 31.8965 12.4711 30.9555 13.0422 30.3648C13.8726 29.5062 14.8537 28.7822 15.9465 28.2259C17.5022 27.4341 19.2385 27.0056 21.0082 26.9769C22.7779 26.9482 24.5289 27.32 26.1129 28.0609C27.2269 28.5819 28.2352 29.2747 29.0974 30.1072C29.6878 30.6773 29.5348 31.6233 28.8566 32.0855C28.2343 32.5096 27.3973 32.3644 26.8406 31.8572C26.2445 31.314 25.5607 30.8582 24.812 30.508C23.6473 29.9633 22.3598 29.6899 21.0586 29.711C19.7574 29.7322 18.4808 30.0472 17.337 30.6294C16.604 31.0025 15.9393 31.4782 15.3649 32.0381C14.8238 32.5654 13.9894 32.7402 13.3511 32.3361Z"/>
</mask>
<path d="M13.3511 32.3361C12.6569 31.8965 12.4711 30.9555 13.0422 30.3648C13.8726 29.5062 14.8537 28.7822 15.9465 28.2259C17.5022 27.4341 19.2385 27.0056 21.0082 26.9769C22.7779 26.9482 24.5289 27.32 26.1129 28.0609C27.2269 28.5819 28.2352 29.2747 29.0974 30.1072C29.6878 30.6773 29.5348 31.6233 28.8566 32.0855C28.2343 32.5096 27.3973 32.3644 26.8406 31.8572C26.2445 31.314 25.5607 30.8582 24.812 30.508C23.6473 29.9633 22.3598 29.6899 21.0586 29.711C19.7574 29.7322 18.4808 30.0472 17.337 30.6294C16.604 31.0025 15.9393 31.4782 15.3649 32.0381C14.8238 32.5654 13.9894 32.7402 13.3511 32.3361Z" stroke="url(#paint1_linear_1277_7334)" stroke-width="3.7561" stroke-linejoin="round" mask="url(#path-4-inside-1_1277_7334)"/>
</g>
</g>
<defs>
<filter id="filter0_iii_1277_7334" x="-1.59485" y="-4.09756" width="47.4634" height="55.6585" filterUnits="userSpaceOnUse" color-interpolation-filters="sRGB">
<feFlood flood-opacity="0" result="BackgroundImageFix"/>
<feBlend mode="normal" in="SourceGraphic" in2="BackgroundImageFix" result="shape"/>
<feColorMatrix in="SourceAlpha" type="matrix" values="0 0 0 0 0 0 0 0 0 0 0 0 0 0 0 0 0 0 127 0" result="hardAlpha"/>
<feMorphology radius="1.36585" operator="erode" in="SourceAlpha" result="effect1_innerShadow_1277_7334"/>
<feOffset dx="3.58537" dy="12.4634"/>
<feGaussianBlur stdDeviation="4.09756"/>
<feComposite in2="hardAlpha" operator="arithmetic" k2="-1" k3="1"/>
<feColorMatrix type="matrix" values="0 0 0 0 0.682806 0 0 0 0 0.0652778 0 0 0 0 0.783333 0 0 0 0.14 0"/>
<feBlend mode="normal" in2="shape" result="effect1_innerShadow_1277_7334"/>
<feColorMatrix in="SourceAlpha" type="matrix" values="0 0 0 0 0 0 0 0 0 0 0 0 0 0 0 0 0 0 127 0" result="hardAlpha"/>
<feOffset dy="-4.09756"/>
<feGaussianBlur stdDeviation="2.64634"/>
<feComposite in2="hardAlpha" operator="arithmetic" k2="-1" k3="1"/>
<feColorMatrix type="matrix" values="0 0 0 0 0.943639 0 0 0 0 0.223611 0 0 0 0 0.958333 0 0 0 0.44 0"/>
<feBlend mode="normal" in2="effect1_innerShadow_1277_7334" result="effect2_innerShadow_1277_7334"/>
<feColorMatrix in="SourceAlpha" type="matrix" values="0 0 0 0 0 0 0 0 0 0 0 0 0 0 0 0 0 0 127 0" result="hardAlpha"/>
<feOffset dx="-1.87805" dy="5.12195"/>
<feGaussianBlur stdDeviation="2.64634"/>
<feComposite in2="hardAlpha" operator="arithmetic" k2="-1" k3="1"/>
<feColorMatrix type="matrix" values="0 0 0 0 1 0 0 0 0 0.766722 0 0 0 0 0.693056 0 0 0 0.68 0"/>
<feBlend mode="normal" in2="effect2_innerShadow_1277_7334" result="effect3_innerShadow_1277_7334"/>
</filter>
<filter id="filter1_i_1277_7334" x="7.25391" y="18.098" width="11.5254" height="5.89026" filterUnits="userSpaceOnUse" color-interpolation-filters="sRGB">
<feFlood flood-opacity="0" result="BackgroundImageFix"/>
<feBlend mode="normal" in="SourceGraphic" in2="BackgroundImageFix" result="shape"/>
<feColorMatrix in="SourceAlpha" type="matrix" values="0 0 0 0 0 0 0 0 0 0 0 0 0 0 0 0 0 0 127 0" result="hardAlpha"/>
<feMorphology radius="4.51585" operator="dilate" in="SourceAlpha" result="effect1_innerShadow_1277_7334"/>
<feOffset dx="1.57073" dy="-1.19512"/>
<feGaussianBlur stdDeviation="1.76707"/>
<feComposite in2="hardAlpha" operator="arithmetic" k2="-1" k3="1"/>
<feColorMatrix type="matrix" values="0 0 0 0 0.462111 0 0 0 0 0.203767 0 0 0 0 0.504167 0 0 0 0.35 0"/>
<feBlend mode="normal" in2="shape" result="effect1_innerShadow_1277_7334"/>
</filter>
<filter id="filter2_i_1277_7334" x="23.8145" y="18.098" width="11.5254" height="5.89026" filterUnits="userSpaceOnUse" color-interpolation-filters="sRGB">
<feFlood flood-opacity="0" result="BackgroundImageFix"/>
<feBlend mode="normal" in="SourceGraphic" in2="BackgroundImageFix" result="shape"/>
<feColorMatrix in="SourceAlpha" type="matrix" values="0 0 0 0 0 0 0 0 0 0 0 0 0 0 0 0 0 0 127 0" result="hardAlpha"/>
<feMorphology radius="4.51585" operator="dilate" in="SourceAlpha" result="effect1_innerShadow_1277_7334"/>
<feOffset dx="1.57073" dy="-1.53659"/>
<feGaussianBlur stdDeviation="1.76707"/>
<feComposite in2="hardAlpha" operator="arithmetic" k2="-1" k3="1"/>
<feColorMatrix type="matrix" values="0 0 0 0 0.462111 0 0 0 0 0.203767 0 0 0 0 0.504167 0 0 0 0.35 0"/>
<feBlend mode="normal" in2="shape" result="effect1_innerShadow_1277_7334"/>
</filter>
<filter id="filter3_diiii_1277_7334" x="7.01402" y="24.1298" width="28.1419" height="16.9652" filterUnits="userSpaceOnUse" color-interpolation-filters="sRGB">
<feFlood flood-opacity="0" result="BackgroundImageFix"/>
<feColorMatrix in="SourceAlpha" type="matrix" values="0 0 0 0 0 0 0 0 0 0 0 0 0 0 0 0 0 0 127 0" result="hardAlpha"/>
<feOffset dy="2.84553"/>
<feGaussianBlur stdDeviation="2.84553"/>
<feColorMatrix type="matrix" values="0 0 0 0 0.0298758 0 0 0 0 0.0216858 0 0 0 0 0.0308333 0 0 0 0.24 0"/>
<feBlend mode="normal" in2="BackgroundImageFix" result="effect1_dropShadow_1277_7334"/>
<feBlend mode="normal" in="SourceGraphic" in2="effect1_dropShadow_1277_7334" result="shape"/>
<feColorMatrix in="SourceAlpha" type="matrix" values="0 0 0 0 0 0 0 0 0 0 0 0 0 0 0 0 0 0 127 0" result="hardAlpha"/>
<feOffset dy="0.885275"/>
<feGaussianBlur stdDeviation="0.442638"/>
<feComposite in2="hardAlpha" operator="arithmetic" k2="-1" k3="1"/>
<feColorMatrix type="matrix" values="0 0 0 0 0.17328 0 0 0 0 0.125777 0 0 0 0 0.178833 0 0 0 1 0"/>
<feBlend mode="normal" in2="shape" result="effect2_innerShadow_1277_7334"/>
<feColorMatrix in="SourceAlpha" type="matrix" values="0 0 0 0 0 0 0 0 0 0 0 0 0 0 0 0 0 0 127 0" result="hardAlpha"/>
<feOffset dy="-0.442638"/>
<feGaussianBlur stdDeviation="0.221319"/>
<feComposite in2="hardAlpha" operator="arithmetic" k2="-1" k3="1"/>
<feColorMatrix type="matrix" values="0 0 0 0 0.119503 0 0 0 0 0.086743 0 0 0 0 0.123333 0 0 0 1 0"/>
<feBlend mode="normal" in2="effect2_innerShadow_1277_7334" result="effect3_innerShadow_1277_7334"/>
<feColorMatrix in="SourceAlpha" type="matrix" values="0 0 0 0 0 0 0 0 0 0 0 0 0 0 0 0 0 0 127 0" result="hardAlpha"/>
<feMorphology radius="4.51585" operator="dilate" in="SourceAlpha" result="effect4_innerShadow_1277_7334"/>
<feOffset dx="1.57073" dy="-1.53659"/>
<feGaussianBlur stdDeviation="1.76707"/>
<feComposite in2="hardAlpha" operator="arithmetic" k2="-1" k3="1"/>
<feColorMatrix type="matrix" values="0 0 0 0 0.462111 0 0 0 0 0.203767 0 0 0 0 0.504167 0 0 0 0.35 0"/>
<feBlend mode="normal" in2="effect3_innerShadow_1277_7334" result="effect4_innerShadow_1277_7334"/>
<feColorMatrix in="SourceAlpha" type="matrix" values="0 0 0 0 0 0 0 0 0 0 0 0 0 0 0 0 0 0 127 0" result="hardAlpha"/>
<feMorphology radius="4.51585" operator="dilate" in="SourceAlpha" result="effect5_innerShadow_1277_7334"/>
<feOffset dx="1.57073" dy="-1.53659"/>
<feGaussianBlur stdDeviation="1.76707"/>
<feComposite in2="hardAlpha" operator="arithmetic" k2="-1" k3="1"/>
<feColorMatrix type="matrix" values="0 0 0 0 0.462111 0 0 0 0 0.203767 0 0 0 0 0.504167 0 0 0 0.35 0"/>
<feBlend mode="normal" in2="effect4_innerShadow_1277_7334" result="effect5_innerShadow_1277_7334"/>
</filter>
<radialGradient id="paint0_radial_1277_7334" cx="0" cy="0" r="1" gradientUnits="userSpaceOnUse" gradientTransform="translate(18.893 2.73171) rotate(86.5167) scale(39.341)">
<stop offset="0.576389" stop-color="#FFBB0C"/>
<stop offset="1" stop-color="#FFC907"/>
</radialGradient>
<linearGradient id="paint1_linear_1277_7334" x1="21.1987" y1="47.6339" x2="21.1987" y2="26.9754" gradientUnits="userSpaceOnUse">
<stop stop-color="#201721"/>
<stop offset="1" stop-color="#2B1F2C"/>
</linearGradient>
<clipPath id="clip0_1277_7334">
<rect width="42" height="42" fill="white" transform="translate(0.283203)"/>
</clipPath>
</defs>
</svg>
