<svg width="43" height="42" viewBox="0 0 43 42" fill="none" xmlns="http://www.w3.org/2000/svg">
<g clip-path="url(#clip0_1277_7371)">
<g filter="url(#filter0_iii_1277_7371)">
<path d="M0.607422 19.6341C0.607422 8.79051 9.39793 0 20.2416 0H22.2903C33.5112 0 42.6074 9.09626 42.6074 20.3171V21.6829C42.6074 32.9037 33.5112 42 22.2903 42H21.6074C10.0094 42 0.607422 32.598 0.607422 21V19.6341Z" fill="url(#paint0_radial_1277_7371)"/>
</g>
<g filter="url(#filter1_di_1277_7371)">
<path fill-rule="evenodd" clip-rule="evenodd" d="M32.8683 19.3825C34.423 18.2852 35.4384 16.4748 35.4384 14.4272C35.4384 11.0798 32.7248 8.36621 29.3774 8.36621C26.03 8.36621 23.3164 11.0798 23.3164 14.4272C23.3164 16.4317 24.2895 18.209 25.7891 19.3123C26.7051 18.4533 27.9371 17.9272 29.292 17.9272C30.6834 17.9272 31.9453 18.482 32.8683 19.3825Z" fill="#FAFAFA"/>
</g>
<g filter="url(#filter2_i_1277_7371)">
<rect x="26.1543" y="11.2032" width="6.44463" height="6.44463" rx="3.22232" fill="#2C2F36"/>
</g>
<g filter="url(#filter3_di_1277_7371)">
<path fill-rule="evenodd" clip-rule="evenodd" d="M17.3312 19.3825C18.8859 18.2852 19.9012 16.4748 19.9012 14.4272C19.9012 11.0798 17.1877 8.36621 13.8403 8.36621C10.4929 8.36621 7.7793 11.0798 7.7793 14.4272C7.7793 16.4317 8.75239 18.209 10.252 19.3123C11.168 18.4533 12.4 17.9272 13.7549 17.9272C15.1463 17.9272 16.4081 18.482 17.3312 19.3825Z" fill="#FAFAFA"/>
</g>
<g filter="url(#filter4_i_1277_7371)">
<rect x="10.6172" y="11.2032" width="6.44463" height="6.44463" rx="3.22232" fill="#2C2F36"/>
</g>
<g filter="url(#filter5_diiii_1277_7371)">
<mask id="path-6-inside-1_1277_7371" fill="white">
<path d="M31.2464 19.2071C32.0515 19.2071 32.7152 19.8633 32.5947 20.6593C32.465 21.5163 32.2206 22.3566 31.8658 23.1599C31.3124 24.4131 30.5013 25.5518 29.4787 26.511C28.4561 27.4701 27.2421 28.231 25.9061 28.7501C24.57 29.2692 23.138 29.5363 21.6919 29.5363C20.2457 29.5363 18.8138 29.2692 17.4777 28.7501C16.1416 28.231 14.9277 27.4701 13.9051 26.511C12.8825 25.5518 12.0714 24.4131 11.5179 23.1599C11.1632 22.3566 10.9188 21.5163 10.7891 20.6593C10.6686 19.8633 11.3323 19.2071 12.1373 19.2071C12.9424 19.2071 13.5803 19.8663 13.7434 20.6546C13.8466 21.1532 14.0031 21.642 14.2113 22.1135C14.6183 23.0349 15.2147 23.8721 15.9665 24.5774C16.7184 25.2826 17.611 25.842 18.5933 26.2237C19.5757 26.6054 20.6286 26.8018 21.6919 26.8018C22.7552 26.8018 23.8081 26.6054 24.7904 26.2237C25.7728 25.842 26.6654 25.2826 27.4172 24.5774C28.1691 23.8721 28.7655 23.0349 29.1724 22.1135C29.3806 21.642 29.5371 21.1532 29.6403 20.6546C29.8035 19.8663 30.4414 19.2071 31.2464 19.2071Z"/>
</mask>
<path d="M31.2464 19.2071C32.0515 19.2071 32.7152 19.8633 32.5947 20.6593C32.465 21.5163 32.2206 22.3566 31.8658 23.1599C31.3124 24.4131 30.5013 25.5518 29.4787 26.511C28.4561 27.4701 27.2421 28.231 25.9061 28.7501C24.57 29.2692 23.138 29.5363 21.6919 29.5363C20.2457 29.5363 18.8138 29.2692 17.4777 28.7501C16.1416 28.231 14.9277 27.4701 13.9051 26.511C12.8825 25.5518 12.0714 24.4131 11.5179 23.1599C11.1632 22.3566 10.9188 21.5163 10.7891 20.6593C10.6686 19.8633 11.3323 19.2071 12.1373 19.2071C12.9424 19.2071 13.5803 19.8663 13.7434 20.6546C13.8466 21.1532 14.0031 21.642 14.2113 22.1135C14.6183 23.0349 15.2147 23.8721 15.9665 24.5774C16.7184 25.2826 17.611 25.842 18.5933 26.2237C19.5757 26.6054 20.6286 26.8018 21.6919 26.8018C22.7552 26.8018 23.8081 26.6054 24.7904 26.2237C25.7728 25.842 26.6654 25.2826 27.4172 24.5774C28.1691 23.8721 28.7655 23.0349 29.1724 22.1135C29.3806 21.642 29.5371 21.1532 29.6403 20.6546C29.8035 19.8663 30.4414 19.2071 31.2464 19.2071Z" stroke="url(#paint1_linear_1277_7371)" stroke-width="3.7561" stroke-linejoin="round" mask="url(#path-6-inside-1_1277_7371)"/>
</g>
</g>
<defs>
<filter id="filter0_iii_1277_7371" x="-1.27063" y="-4.09756" width="47.4634" height="55.6585" filterUnits="userSpaceOnUse" color-interpolation-filters="sRGB">
<feFlood flood-opacity="0" result="BackgroundImageFix"/>
<feBlend mode="normal" in="SourceGraphic" in2="BackgroundImageFix" result="shape"/>
<feColorMatrix in="SourceAlpha" type="matrix" values="0 0 0 0 0 0 0 0 0 0 0 0 0 0 0 0 0 0 127 0" result="hardAlpha"/>
<feMorphology radius="1.36585" operator="erode" in="SourceAlpha" result="effect1_innerShadow_1277_7371"/>
<feOffset dx="3.58537" dy="12.4634"/>
<feGaussianBlur stdDeviation="4.09756"/>
<feComposite in2="hardAlpha" operator="arithmetic" k2="-1" k3="1"/>
<feColorMatrix type="matrix" values="0 0 0 0 0.682806 0 0 0 0 0.0652778 0 0 0 0 0.783333 0 0 0 0.14 0"/>
<feBlend mode="normal" in2="shape" result="effect1_innerShadow_1277_7371"/>
<feColorMatrix in="SourceAlpha" type="matrix" values="0 0 0 0 0 0 0 0 0 0 0 0 0 0 0 0 0 0 127 0" result="hardAlpha"/>
<feOffset dy="-4.09756"/>
<feGaussianBlur stdDeviation="2.64634"/>
<feComposite in2="hardAlpha" operator="arithmetic" k2="-1" k3="1"/>
<feColorMatrix type="matrix" values="0 0 0 0 0.943639 0 0 0 0 0.223611 0 0 0 0 0.958333 0 0 0 0.44 0"/>
<feBlend mode="normal" in2="effect1_innerShadow_1277_7371" result="effect2_innerShadow_1277_7371"/>
<feColorMatrix in="SourceAlpha" type="matrix" values="0 0 0 0 0 0 0 0 0 0 0 0 0 0 0 0 0 0 127 0" result="hardAlpha"/>
<feOffset dx="-1.87805" dy="5.12195"/>
<feGaussianBlur stdDeviation="2.64634"/>
<feComposite in2="hardAlpha" operator="arithmetic" k2="-1" k3="1"/>
<feColorMatrix type="matrix" values="0 0 0 0 1 0 0 0 0 0.766722 0 0 0 0 0.693056 0 0 0 0.68 0"/>
<feBlend mode="normal" in2="effect2_innerShadow_1277_7371" result="effect3_innerShadow_1277_7371"/>
</filter>
<filter id="filter1_di_1277_7371" x="20.5847" y="6.31743" width="17.5845" height="16.4797" filterUnits="userSpaceOnUse" color-interpolation-filters="sRGB">
<feFlood flood-opacity="0" result="BackgroundImageFix"/>
<feColorMatrix in="SourceAlpha" type="matrix" values="0 0 0 0 0 0 0 0 0 0 0 0 0 0 0 0 0 0 127 0" result="hardAlpha"/>
<feOffset dy="0.682927"/>
<feGaussianBlur stdDeviation="1.36585"/>
<feColorMatrix type="matrix" values="0 0 0 0 0 0 0 0 0 0 0 0 0 0 0 0 0 0 0.25 0"/>
<feBlend mode="normal" in2="BackgroundImageFix" result="effect1_dropShadow_1277_7371"/>
<feBlend mode="normal" in="SourceGraphic" in2="effect1_dropShadow_1277_7371" result="shape"/>
<feColorMatrix in="SourceAlpha" type="matrix" values="0 0 0 0 0 0 0 0 0 0 0 0 0 0 0 0 0 0 127 0" result="hardAlpha"/>
<feOffset dy="-0.606098"/>
<feGaussianBlur stdDeviation="1.51524"/>
<feComposite in2="hardAlpha" operator="arithmetic" k2="-1" k3="1"/>
<feColorMatrix type="matrix" values="0 0 0 0 0 0 0 0 0 0 0 0 0 0 0 0 0 0 0.25 0"/>
<feBlend mode="normal" in2="shape" result="effect2_innerShadow_1277_7371"/>
</filter>
<filter id="filter2_i_1277_7371" x="26.1543" y="11.2032" width="6.44531" height="6.44458" filterUnits="userSpaceOnUse" color-interpolation-filters="sRGB">
<feFlood flood-opacity="0" result="BackgroundImageFix"/>
<feBlend mode="normal" in="SourceGraphic" in2="BackgroundImageFix" result="shape"/>
<feColorMatrix in="SourceAlpha" type="matrix" values="0 0 0 0 0 0 0 0 0 0 0 0 0 0 0 0 0 0 127 0" result="hardAlpha"/>
<feMorphology radius="5.32689" operator="dilate" in="SourceAlpha" result="effect1_innerShadow_1277_7371"/>
<feOffset dx="1.85283" dy="-5.5585"/>
<feGaussianBlur stdDeviation="2.08444"/>
<feComposite in2="hardAlpha" operator="arithmetic" k2="-1" k3="1"/>
<feColorMatrix type="matrix" values="0 0 0 0 0.462111 0 0 0 0 0.203767 0 0 0 0 0.504167 0 0 0 0.35 0"/>
<feBlend mode="normal" in2="shape" result="effect1_innerShadow_1277_7371"/>
</filter>
<filter id="filter3_di_1277_7371" x="5.04759" y="6.31743" width="17.5845" height="16.4797" filterUnits="userSpaceOnUse" color-interpolation-filters="sRGB">
<feFlood flood-opacity="0" result="BackgroundImageFix"/>
<feColorMatrix in="SourceAlpha" type="matrix" values="0 0 0 0 0 0 0 0 0 0 0 0 0 0 0 0 0 0 127 0" result="hardAlpha"/>
<feOffset dy="0.682927"/>
<feGaussianBlur stdDeviation="1.36585"/>
<feColorMatrix type="matrix" values="0 0 0 0 0 0 0 0 0 0 0 0 0 0 0 0 0 0 0.25 0"/>
<feBlend mode="normal" in2="BackgroundImageFix" result="effect1_dropShadow_1277_7371"/>
<feBlend mode="normal" in="SourceGraphic" in2="effect1_dropShadow_1277_7371" result="shape"/>
<feColorMatrix in="SourceAlpha" type="matrix" values="0 0 0 0 0 0 0 0 0 0 0 0 0 0 0 0 0 0 127 0" result="hardAlpha"/>
<feOffset dy="-0.606098"/>
<feGaussianBlur stdDeviation="1.51524"/>
<feComposite in2="hardAlpha" operator="arithmetic" k2="-1" k3="1"/>
<feColorMatrix type="matrix" values="0 0 0 0 0 0 0 0 0 0 0 0 0 0 0 0 0 0 0.25 0"/>
<feBlend mode="normal" in2="shape" result="effect2_innerShadow_1277_7371"/>
</filter>
<filter id="filter4_i_1277_7371" x="10.6172" y="11.2032" width="6.44531" height="6.44458" filterUnits="userSpaceOnUse" color-interpolation-filters="sRGB">
<feFlood flood-opacity="0" result="BackgroundImageFix"/>
<feBlend mode="normal" in="SourceGraphic" in2="BackgroundImageFix" result="shape"/>
<feColorMatrix in="SourceAlpha" type="matrix" values="0 0 0 0 0 0 0 0 0 0 0 0 0 0 0 0 0 0 127 0" result="hardAlpha"/>
<feMorphology radius="5.32689" operator="dilate" in="SourceAlpha" result="effect1_innerShadow_1277_7371"/>
<feOffset dx="1.85283" dy="-5.5585"/>
<feGaussianBlur stdDeviation="2.08444"/>
<feComposite in2="hardAlpha" operator="arithmetic" k2="-1" k3="1"/>
<feColorMatrix type="matrix" values="0 0 0 0 0.462111 0 0 0 0 0.203767 0 0 0 0 0.504167 0 0 0 0.35 0"/>
<feBlend mode="normal" in2="shape" result="effect1_innerShadow_1277_7371"/>
</filter>
<filter id="filter5_diiii_1277_7371" x="5.08433" y="16.3615" width="33.2161" height="21.7115" filterUnits="userSpaceOnUse" color-interpolation-filters="sRGB">
<feFlood flood-opacity="0" result="BackgroundImageFix"/>
<feColorMatrix in="SourceAlpha" type="matrix" values="0 0 0 0 0 0 0 0 0 0 0 0 0 0 0 0 0 0 127 0" result="hardAlpha"/>
<feOffset dy="2.84553"/>
<feGaussianBlur stdDeviation="2.84553"/>
<feColorMatrix type="matrix" values="0 0 0 0 0.0298758 0 0 0 0 0.0216858 0 0 0 0 0.0308333 0 0 0 0.24 0"/>
<feBlend mode="normal" in2="BackgroundImageFix" result="effect1_dropShadow_1277_7371"/>
<feBlend mode="normal" in="SourceGraphic" in2="effect1_dropShadow_1277_7371" result="shape"/>
<feColorMatrix in="SourceAlpha" type="matrix" values="0 0 0 0 0 0 0 0 0 0 0 0 0 0 0 0 0 0 127 0" result="hardAlpha"/>
<feOffset dy="0.885275"/>
<feGaussianBlur stdDeviation="0.442638"/>
<feComposite in2="hardAlpha" operator="arithmetic" k2="-1" k3="1"/>
<feColorMatrix type="matrix" values="0 0 0 0 0.17328 0 0 0 0 0.125777 0 0 0 0 0.178833 0 0 0 1 0"/>
<feBlend mode="normal" in2="shape" result="effect2_innerShadow_1277_7371"/>
<feColorMatrix in="SourceAlpha" type="matrix" values="0 0 0 0 0 0 0 0 0 0 0 0 0 0 0 0 0 0 127 0" result="hardAlpha"/>
<feOffset dy="-0.442638"/>
<feGaussianBlur stdDeviation="0.221319"/>
<feComposite in2="hardAlpha" operator="arithmetic" k2="-1" k3="1"/>
<feColorMatrix type="matrix" values="0 0 0 0 0.119503 0 0 0 0 0.086743 0 0 0 0 0.123333 0 0 0 1 0"/>
<feBlend mode="normal" in2="effect2_innerShadow_1277_7371" result="effect3_innerShadow_1277_7371"/>
<feColorMatrix in="SourceAlpha" type="matrix" values="0 0 0 0 0 0 0 0 0 0 0 0 0 0 0 0 0 0 127 0" result="hardAlpha"/>
<feMorphology radius="4.51585" operator="dilate" in="SourceAlpha" result="effect4_innerShadow_1277_7371"/>
<feOffset dx="1.57073" dy="-1.53659"/>
<feGaussianBlur stdDeviation="1.76707"/>
<feComposite in2="hardAlpha" operator="arithmetic" k2="-1" k3="1"/>
<feColorMatrix type="matrix" values="0 0 0 0 0.462111 0 0 0 0 0.203767 0 0 0 0 0.504167 0 0 0 0.35 0"/>
<feBlend mode="normal" in2="effect3_innerShadow_1277_7371" result="effect4_innerShadow_1277_7371"/>
<feColorMatrix in="SourceAlpha" type="matrix" values="0 0 0 0 0 0 0 0 0 0 0 0 0 0 0 0 0 0 127 0" result="hardAlpha"/>
<feMorphology radius="4.51585" operator="dilate" in="SourceAlpha" result="effect5_innerShadow_1277_7371"/>
<feOffset dx="1.57073" dy="-1.53659"/>
<feGaussianBlur stdDeviation="1.76707"/>
<feComposite in2="hardAlpha" operator="arithmetic" k2="-1" k3="1"/>
<feColorMatrix type="matrix" values="0 0 0 0 0.462111 0 0 0 0 0.203767 0 0 0 0 0.504167 0 0 0 0.35 0"/>
<feBlend mode="normal" in2="effect4_innerShadow_1277_7371" result="effect5_innerShadow_1277_7371"/>
</filter>
<radialGradient id="paint0_radial_1277_7371" cx="0" cy="0" r="1" gradientUnits="userSpaceOnUse" gradientTransform="translate(19.2172 2.73171) rotate(86.5167) scale(39.341)">
<stop offset="0.576389" stop-color="#FFBB0C"/>
<stop offset="1" stop-color="#FFC907"/>
</radialGradient>
<linearGradient id="paint1_linear_1277_7371" x1="21.6919" y1="8.87781" x2="21.6919" y2="29.5363" gradientUnits="userSpaceOnUse">
<stop stop-color="#201721"/>
<stop offset="1" stop-color="#2B1F2C"/>
</linearGradient>
<clipPath id="clip0_1277_7371">
<rect width="42" height="42" fill="white" transform="translate(0.607422)"/>
</clipPath>
</defs>
</svg>
