<svg width="275" height="124" viewBox="0 0 275 124" fill="none" xmlns="http://www.w3.org/2000/svg">
<path d="M139.001 10.3334C110.429 10.3334 87.334 33.4284 87.334 62C87.334 90.5717 110.429 113.667 139.001 113.667C167.572 113.667 190.667 90.5717 190.667 62C190.667 33.4284 167.572 10.3334 139.001 10.3334ZM161.217 84.2167C160.739 84.6957 160.172 85.0757 159.547 85.3349C158.922 85.5942 158.251 85.7277 157.575 85.7277C156.898 85.7277 156.228 85.5942 155.603 85.3349C154.978 85.0757 154.41 84.6957 153.932 84.2167L139.001 69.285L124.069 84.2167C123.103 85.1828 121.793 85.7255 120.426 85.7255C119.06 85.7255 117.75 85.1828 116.784 84.2167C115.818 83.2507 115.275 81.9404 115.275 80.5742C115.275 79.8977 115.408 79.2279 115.667 78.6029C115.926 77.9779 116.306 77.41 116.784 76.9317L131.716 62L116.784 47.0684C115.818 46.1023 115.275 44.7921 115.275 43.4259C115.275 42.0597 115.818 40.7494 116.784 39.7834C117.75 38.8173 119.06 38.2746 120.426 38.2746C121.793 38.2746 123.103 38.8173 124.069 39.7834L139.001 54.715L153.932 39.7834C154.411 39.305 154.979 38.9256 155.604 38.6667C156.229 38.4078 156.898 38.2746 157.575 38.2746C158.251 38.2746 158.921 38.4078 159.546 38.6667C160.171 38.9256 160.739 39.305 161.217 39.7834C161.696 40.2617 162.075 40.8296 162.334 41.4546C162.593 42.0795 162.726 42.7494 162.726 43.4259C162.726 44.1023 162.593 44.7722 162.334 45.3972C162.075 46.0222 161.696 46.59 161.217 47.0684L146.286 62L161.217 76.9317C163.181 78.8951 163.181 82.2017 161.217 84.2167Z" fill="#E11D48"/>
<circle cx="7.15832" cy="46.6876" r="6.67004" fill="#E11D48"/>
<circle cx="263.675" cy="35.8483" r="10.8388" fill="#FFC5C5"/>
<circle cx="203.089" cy="80.8702" r="4.16877" fill="#FFC5C5"/>
</svg>
