<svg width="21" height="22" viewBox="0 0 21 22" fill="none" xmlns="http://www.w3.org/2000/svg">
<path d="M20.7629 11.2327C20.7629 10.3716 20.6931 9.74319 20.5418 9.09155H10.709V12.9781H16.4806C16.3643 13.944 15.736 15.3985 14.3395 16.3759L14.32 16.5061L17.4289 18.9145L17.6443 18.936C19.6225 17.1091 20.7629 14.421 20.7629 11.2327Z" fill="#4285F4"/>
<path d="M10.7093 21.4728C13.5369 21.4728 15.9107 20.5419 17.6446 18.9361L14.3399 16.376C13.4555 16.9927 12.2686 17.4233 10.7093 17.4233C7.93982 17.4233 5.58927 15.5964 4.75136 13.0713L4.62854 13.0817L1.39579 15.5836L1.35352 15.7011C3.0757 19.1222 6.61321 21.4728 10.7093 21.4728Z" fill="#34A853"/>
<path d="M4.75125 13.0712C4.53016 12.4196 4.40221 11.7214 4.40221 10.9999C4.40221 10.2784 4.53016 9.58027 4.73962 8.92863L4.73376 8.78985L1.4605 6.2478L1.35341 6.29874C0.64361 7.71842 0.236328 9.31265 0.236328 10.9999C0.236328 12.6872 0.64361 14.2814 1.35341 15.7011L4.75125 13.0712Z" fill="#FBBC05"/>
<path d="M10.7093 4.57658C12.6758 4.57658 14.0024 5.42604 14.7588 6.13591L17.7144 3.25004C15.8992 1.56275 13.5369 0.5271 10.7093 0.5271C6.61321 0.5271 3.0757 2.87766 1.35352 6.29876L4.73973 8.92865C5.58927 6.40353 7.93982 4.57658 10.7093 4.57658Z" fill="#EB4335"/>
</svg>
