<svg width="24" height="24" viewBox="0 0 17 17" fill="none" xmlns="http://www.w3.org/2000/svg">
<path d="M6.94817 11.7699H10.0635M8.50582 2.43652V3.10319M12.7485 4.19388L12.2771 4.66529M14.5059 8.43649H13.8392M3.17253 8.43649H2.50586M4.73459 4.66529L4.26318 4.19388M6.1488 10.7936C4.84705 9.49181 4.84705 7.38126 6.1488 6.07952C7.45055 4.77777 9.5611 4.77777 10.8628 6.07952C12.1646 7.38126 12.1646 9.49181 10.8628 10.7936L10.4981 11.1583C10.0762 11.5802 9.83916 12.1525 9.83916 12.7492V13.1032C9.83916 13.8396 9.2422 14.4365 8.50582 14.4365C7.76944 14.4365 7.17249 13.8396 7.17249 13.1032V12.7492C7.17249 12.1525 6.93546 11.5802 6.51353 11.1583L6.1488 10.7936Z" stroke="#1C8A44" stroke-width="1.5" stroke-linecap="round" stroke-linejoin="round"/>
</svg>
