<svg width="360" height="127" viewBox="0 0 360 127" fill="none" xmlns="http://www.w3.org/2000/svg">
<path d="M275.488 109.5C320.238 109.5 314.85 93.0769 360 93.0769V127H270.1H180.2H89.9001H0V64C45.1498 64 40.3107 91 85.061 91C130.211 91 127.716 77.5 172.866 77.5C217.616 77.5 230.338 109.5 275.488 109.5Z" fill="url(#paint0_linear_352_5381)"/>
<circle cx="187.5" cy="66.8447" r="2.5" fill="url(#paint1_linear_352_5381)"/>
<circle cx="140.5" cy="70.5" r="2.5" fill="url(#paint2_linear_352_5381)"/>
<circle cx="293.5" cy="2.5" r="2.5" fill="url(#paint3_linear_352_5381)"/>
<circle cx="70" cy="10" r="5" fill="url(#paint4_linear_352_5381)"/>
<circle cx="236" cy="38" r="5" fill="url(#paint5_linear_352_5381)"/>
<defs>
<linearGradient id="paint0_linear_352_5381" x1="356.3" y1="64.54" x2="356.3" y2="127.864" gradientUnits="userSpaceOnUse">
<stop stop-color="#4CAD7F"/>
<stop offset="1" stop-color="#1C8A44"/>
</linearGradient>
<linearGradient id="paint1_linear_352_5381" x1="185.051" y1="64.3876" x2="185.051" y2="69.4133" gradientUnits="userSpaceOnUse">
<stop stop-color="#4CAD7F"/>
<stop offset="1" stop-color="#1C8A44"/>
</linearGradient>
<linearGradient id="paint2_linear_352_5381" x1="138.051" y1="68.0429" x2="138.051" y2="73.0686" gradientUnits="userSpaceOnUse">
<stop stop-color="#4CAD7F"/>
<stop offset="1" stop-color="#1C8A44"/>
</linearGradient>
<linearGradient id="paint3_linear_352_5381" x1="291.051" y1="0.0428571" x2="291.051" y2="5.06857" gradientUnits="userSpaceOnUse">
<stop stop-color="#4CAD7F"/>
<stop offset="1" stop-color="#1C8A44"/>
</linearGradient>
<linearGradient id="paint4_linear_352_5381" x1="65.1028" y1="5.08571" x2="65.1028" y2="15.1371" gradientUnits="userSpaceOnUse">
<stop stop-color="#4CAD7F"/>
<stop offset="1" stop-color="#1C8A44"/>
</linearGradient>
<linearGradient id="paint5_linear_352_5381" x1="231.103" y1="33.0857" x2="231.103" y2="43.1371" gradientUnits="userSpaceOnUse">
<stop stop-color="#4CAD7F"/>
<stop offset="1" stop-color="#1C8A44"/>
</linearGradient>
</defs>
</svg>
