<svg width="80" height="80" viewBox="0 0 80 80" fill="none" xmlns="http://www.w3.org/2000/svg">
<circle cx="40" cy="40" r="40" fill="#1C8A44"/>
<path d="M19.2559 25.22C19.0159 25.22 18.8239 25.148 18.6799 25.004C18.5359 24.86 18.4639 24.664 18.4639 24.416C18.4639 23.896 18.7279 23.636 19.2559 23.636C19.4959 23.636 19.6839 23.708 19.8199 23.852C19.9639 23.988 20.0359 24.176 20.0359 24.416C20.0359 24.952 19.7759 25.22 19.2559 25.22ZM21.1039 25.22C20.8639 25.22 20.6719 25.148 20.5279 25.004C20.3839 24.86 20.3119 24.664 20.3119 24.416C20.3119 23.896 20.5759 23.636 21.1039 23.636C21.3439 23.636 21.5319 23.708 21.6679 23.852C21.8119 23.988 21.8839 24.176 21.8839 24.416C21.8839 24.952 21.6239 25.22 21.1039 25.22ZM23.1319 30.548H24.2119V32H22.9879C22.2439 32 21.6679 31.752 21.2599 31.256C20.9159 31.52 20.4959 31.652 19.9999 31.652C19.2639 31.652 18.6759 31.376 18.2359 30.824C17.8759 30.368 17.6959 29.82 17.6959 29.18C17.6959 28.388 17.9519 27.744 18.4639 27.248C18.8959 26.832 19.3959 26.624 19.9639 26.624C20.2599 26.624 20.5319 26.68 20.7799 26.792V26.48L22.2799 25.688V29.684C22.2799 29.996 22.3439 30.22 22.4719 30.356C22.6079 30.484 22.8279 30.548 23.1319 30.548ZM20.7799 28.304C20.5719 28.128 20.3359 28.04 20.0719 28.04C19.8079 28.04 19.5919 28.148 19.4239 28.364C19.2639 28.58 19.1839 28.864 19.1839 29.216C19.1839 29.568 19.2639 29.848 19.4239 30.056C19.5839 30.264 19.8039 30.368 20.0839 30.368C20.3879 30.368 20.6239 30.264 20.7919 30.056C20.7839 29.992 20.7799 29.892 20.7799 29.756V28.304ZM23.4916 32V30.548H24.7636C25.0676 30.548 25.2836 30.484 25.4116 30.356C25.5476 30.22 25.6156 29.996 25.6156 29.684V28.1L27.1276 27.308V29.684C27.1276 29.996 27.1916 30.22 27.3196 30.356C27.4476 30.484 27.6636 30.548 27.9676 30.548H28.7836C29.0876 30.548 29.3036 30.484 29.4316 30.356C29.5596 30.22 29.6236 29.996 29.6236 29.684V27.788L31.1356 26.984V29.684C31.1356 29.996 31.1996 30.22 31.3276 30.356C31.4636 30.484 31.6836 30.548 31.9876 30.548H32.8036C33.1076 30.548 33.3236 30.484 33.4516 30.356C33.5796 30.22 33.6436 29.996 33.6436 29.684V27.464L35.1556 26.672V29.756C35.1556 30.468 34.9396 31.028 34.5076 31.436C34.1316 31.796 33.6356 31.984 33.0196 32H31.8316C31.2396 32 30.7556 31.824 30.3796 31.472C30.0356 31.816 29.5796 31.992 29.0116 32H27.8236C27.2316 32 26.7476 31.824 26.3716 31.472C25.9956 31.824 25.5116 32 24.9196 32H23.4916ZM39.4783 31.256C39.4783 32.184 39.2223 32.936 38.7103 33.512C38.2383 34.048 37.6143 34.316 36.8383 34.316C36.3343 34.316 35.8423 34.188 35.3623 33.932V32.612C35.7783 32.844 36.1863 32.96 36.5863 32.96C37.0263 32.96 37.3663 32.816 37.6063 32.528C37.8543 32.248 37.9783 31.856 37.9783 31.352V27.476L39.4783 26.672V31.256ZM40.6825 32L41.4385 30.548H43.3345C43.7425 30.548 43.9465 30.312 43.9465 29.84C43.9465 28.96 43.5225 28.284 42.6745 27.812L43.4185 26.528C44.6665 27.256 45.3385 28.244 45.4345 29.492C45.4665 29.892 45.5545 30.168 45.6985 30.32C45.8505 30.472 46.1065 30.548 46.4665 30.548H47.3785V32H46.3825C45.7905 32 45.2905 31.836 44.8825 31.508C44.5865 31.836 44.1625 32 43.6105 32H40.6825ZM54.2915 30.548H55.3595V32H54.1355C53.5595 32 53.0875 31.852 52.7195 31.556C52.2875 32.012 51.7195 32.24 51.0155 32.24C50.2955 32.24 49.7275 32.012 49.3115 31.556C48.9275 31.852 48.4515 32 47.8835 32H46.6595V30.548H47.7395C48.0435 30.548 48.2595 30.484 48.3875 30.356C48.5155 30.22 48.5795 29.996 48.5795 29.684V29.336C48.5795 28.4 48.8235 27.672 49.3115 27.152C49.7355 26.696 50.3035 26.468 51.0155 26.468C51.8235 26.468 52.4475 26.764 52.8875 27.356C53.2555 27.86 53.4395 28.52 53.4395 29.336V29.684C53.4395 29.996 53.5035 30.22 53.6315 30.356C53.7675 30.484 53.9875 30.548 54.2915 30.548ZM51.0155 30.788C51.6235 30.788 51.9275 30.292 51.9275 29.3C51.9275 28.348 51.6235 27.872 51.0155 27.872C50.3995 27.872 50.0915 28.348 50.0915 29.3C50.0915 30.292 50.3995 30.788 51.0155 30.788ZM54.64 32V30.548H55.396C55.764 30.548 56.024 30.468 56.176 30.308C56.336 30.148 56.416 29.876 56.416 29.492V25.064L57.916 24.26V29.504C57.916 30.28 57.68 30.9 57.208 31.364C56.776 31.788 56.2 32 55.48 32H54.64ZM60.0761 32V25.064L61.5881 24.26V32H60.0761ZM28.3279 49.78V46.792C28.3279 46.112 28.5279 45.568 28.9279 45.16C29.2799 44.808 29.7519 44.608 30.3439 44.56C30.1279 44.224 30.0199 43.78 30.0199 43.228C30.0199 42.348 30.2599 41.652 30.7399 41.14C31.1639 40.692 31.7239 40.468 32.4199 40.468C33.1319 40.468 33.6879 40.696 34.0879 41.152C34.4319 41.544 34.6039 42.056 34.6039 42.688V44.116C34.5959 44.708 34.3959 45.168 34.0039 45.496C33.6119 45.824 33.0599 45.992 32.3479 46H30.6799C30.3759 46 30.1599 46.064 30.0319 46.192C29.9039 46.328 29.8399 46.552 29.8399 46.864V48.988L28.3279 49.78ZM33.0919 42.664C33.0919 42.136 32.8679 41.872 32.4199 41.872C32.1319 41.872 31.9039 41.988 31.7359 42.22C31.5759 42.452 31.4959 42.772 31.4959 43.18C31.4959 44.092 31.7959 44.548 32.3959 44.548C32.8599 44.548 33.0919 44.324 33.0919 43.876V42.664ZM42.3445 44.548V46H40.8685C40.8125 46.72 40.4925 47.296 39.9085 47.728C39.4285 48.08 38.8685 48.256 38.2285 48.256C37.7245 48.256 37.2325 48.12 36.7525 47.848V46.54C37.1845 46.788 37.6165 46.912 38.0485 46.912C38.3845 46.912 38.6805 46.82 38.9365 46.636C39.2005 46.452 39.3445 46.232 39.3685 45.976C39.3045 45.968 39.2045 45.96 39.0685 45.952C38.9325 45.936 38.8285 45.924 38.7565 45.916C37.9325 45.828 37.2965 45.504 36.8485 44.944C36.4725 44.472 36.2845 43.9 36.2845 43.228C36.2845 42.348 36.5245 41.652 37.0045 41.14C37.4285 40.692 37.9885 40.468 38.6845 40.468C39.3965 40.468 39.9525 40.696 40.3525 41.152C40.6965 41.544 40.8685 42.056 40.8685 42.688V44.548H42.3445ZM39.3685 42.664C39.3685 42.136 39.1405 41.872 38.6845 41.872C38.0765 41.872 37.7725 42.308 37.7725 43.18C37.7725 43.956 38.1245 44.388 38.8285 44.476C38.9405 44.5 39.1205 44.52 39.3685 44.536V42.664ZM44.4463 40.708C45.0463 40.756 45.5743 40.936 46.0303 41.248C46.8463 41.8 47.2543 42.596 47.2543 43.636V43.792C47.2543 44.512 47.0303 45.076 46.5823 45.484C46.1903 45.828 45.6823 46 45.0583 46H41.6263V44.548H44.9023C45.4623 44.548 45.7423 44.272 45.7423 43.72V43.648C45.7423 43.216 45.5743 42.864 45.2383 42.592C44.9103 42.32 44.4783 42.184 43.9423 42.184C43.5423 42.184 43.1183 42.264 42.6703 42.424V40.972L45.1063 38.26H46.6303L44.4463 40.708ZM50.8426 45.172C50.8426 45.18 50.8426 45.188 50.8426 45.196C50.8426 45.452 50.7626 45.66 50.6026 45.82C50.4426 45.98 50.2306 46.06 49.9666 46.06C49.6946 46.06 49.4746 45.98 49.3066 45.82C49.1466 45.652 49.0666 45.432 49.0666 45.16V45.136C49.0826 44.888 49.1706 44.688 49.3306 44.536C49.4986 44.384 49.7106 44.308 49.9666 44.308C50.2306 44.308 50.4426 44.388 50.6026 44.548C50.7626 44.708 50.8426 44.916 50.8426 45.172Z" fill="white"/>
<path d="M17.32 54.835H19.39V55.36H17.975V56.105H19.155V56.63H17.975V57.475H19.455V58H17.32V54.835ZM19.9293 58V54.835H20.5843V57.475H21.7693V58H19.9293ZM23.9288 57.25C24.1154 56.5667 24.3654 55.7617 24.6788 54.835H25.6288V58H24.9688V55.43C24.8121 56.1067 24.5554 56.9633 24.1988 58H23.6538C23.2771 56.8567 23.0221 56.0083 22.8888 55.455V58H22.2438V54.835H23.1538C23.4671 55.6883 23.7254 56.4933 23.9288 57.25ZM27.2183 54.835H27.7683L28.9333 58H28.2683C28.2117 57.8333 28.1417 57.6133 28.0583 57.34H26.9233C26.8767 57.49 26.805 57.71 26.7083 58H26.0533L27.2183 54.835ZM27.4983 55.69C27.405 55.9533 27.2767 56.3233 27.1133 56.8H27.8733C27.7167 56.34 27.5917 55.97 27.4983 55.69ZM29.358 54.84C29.5213 54.7967 29.8097 54.775 30.223 54.775C30.793 54.775 31.228 54.9417 31.528 55.275C31.7847 55.5583 31.913 55.9283 31.913 56.385C31.913 56.955 31.7497 57.3833 31.423 57.67C31.1263 57.93 30.713 58.06 30.183 58.06C29.8497 58.06 29.5747 58.0383 29.358 57.995V54.84ZM30.013 57.52C30.0797 57.5367 30.163 57.545 30.263 57.545C30.9063 57.545 31.228 57.165 31.228 56.405C31.228 56.0283 31.1213 55.74 30.908 55.54C30.7347 55.38 30.5147 55.3 30.248 55.3C30.1713 55.3 30.093 55.3083 30.013 55.325V57.52ZM32.5123 58V54.84C32.559 54.83 32.6906 54.8167 32.9073 54.8C33.124 54.7833 33.289 54.775 33.4023 54.775C34.209 54.775 34.6123 55.105 34.6123 55.765C34.6123 56.1217 34.4673 56.425 34.1773 56.675C34.2973 56.9517 34.5023 57.3933 34.7923 58H34.1323C33.969 57.6433 33.7923 57.26 33.6023 56.85C33.5656 56.8567 33.5156 56.86 33.4523 56.86C33.3056 56.86 33.2106 56.8467 33.1673 56.82V58H32.5123ZM33.1673 55.335V56.29C33.2673 56.32 33.3756 56.335 33.4923 56.335C33.779 56.335 33.9223 56.145 33.9223 55.765C33.9223 55.455 33.774 55.3 33.4773 55.3C33.3073 55.3 33.204 55.3117 33.1673 55.335ZM36.0025 54.835H36.5525L37.7175 58H37.0525C36.9958 57.8333 36.9258 57.6133 36.8425 57.34H35.7075C35.6608 57.49 35.5892 57.71 35.4925 58H34.8375L36.0025 54.835ZM36.2825 55.69C36.1892 55.9533 36.0608 56.3233 35.8975 56.8H36.6575C36.5008 56.34 36.3758 55.97 36.2825 55.69ZM40.1022 55.095C40.0422 55.185 39.9489 55.32 39.8222 55.5C39.5555 55.3833 39.3172 55.325 39.1072 55.325C38.8305 55.325 38.6922 55.4283 38.6922 55.635C38.6922 55.7283 38.7239 55.8017 38.7872 55.855C38.8505 55.9083 38.9822 55.9733 39.1822 56.05C39.5422 56.19 39.8005 56.3417 39.9572 56.505C40.1172 56.6683 40.1972 56.865 40.1972 57.095C40.1972 57.4183 40.0755 57.6683 39.8322 57.845C39.6322 57.9883 39.3839 58.06 39.0872 58.06C38.7372 58.06 38.3639 57.9333 37.9672 57.68L38.2572 57.275C38.4505 57.405 38.6989 57.47 39.0022 57.47C39.3455 57.47 39.5172 57.3317 39.5172 57.055C39.5172 56.875 39.3322 56.7217 38.9622 56.595C38.3655 56.395 38.0672 56.075 38.0672 55.635C38.0672 55.3683 38.1672 55.1567 38.3672 55C38.5539 54.85 38.8022 54.775 39.1122 54.775C39.4655 54.775 39.7955 54.8817 40.1022 55.095ZM41.564 54.835H42.114L43.279 58H42.614C42.5574 57.8333 42.4874 57.6133 42.404 57.34H41.269C41.2224 57.49 41.1507 57.71 41.054 58H40.399L41.564 54.835ZM41.844 55.69C41.7507 55.9533 41.6224 56.3233 41.459 56.8H42.219C42.0624 56.34 41.9374 55.97 41.844 55.69ZM44.3487 58H43.7037V54.835H44.3487V56.105H45.7087V54.835H46.3637V58H45.7087V56.63H44.3487V58ZM47.9606 57.655C47.9606 57.6583 47.9606 57.6617 47.9606 57.665C47.9606 57.7717 47.9273 57.8583 47.8606 57.925C47.794 57.9917 47.7056 58.025 47.5956 58.025C47.4823 58.025 47.3906 57.9917 47.3206 57.925C47.254 57.855 47.2206 57.7633 47.2206 57.65V57.64C47.2273 57.5367 47.264 57.4533 47.3306 57.39C47.4006 57.3267 47.489 57.295 47.5956 57.295C47.7056 57.295 47.794 57.3283 47.8606 57.395C47.9273 57.4617 47.9606 57.5483 47.9606 57.655ZM51.0663 57.645C50.7896 57.9217 50.4646 58.06 50.0913 58.06C49.5546 58.06 49.1546 57.86 48.8913 57.46C48.7013 57.1733 48.6063 56.8367 48.6063 56.45C48.6063 55.9467 48.7363 55.5417 48.9963 55.235C49.2529 54.9283 49.6096 54.775 50.0663 54.775C50.3863 54.775 50.7063 54.91 51.0263 55.18L50.7713 55.595C50.5313 55.4217 50.3129 55.335 50.1163 55.335C49.8429 55.335 49.6313 55.45 49.4813 55.68C49.3513 55.8767 49.2863 56.1333 49.2863 56.45C49.2863 56.73 49.3629 56.97 49.5163 57.17C49.6796 57.38 49.8979 57.485 50.1713 57.485C50.3513 57.485 50.5646 57.4067 50.8113 57.25L51.0663 57.645ZM52.9026 54.775C53.3892 54.775 53.7642 54.9683 54.0276 55.355C54.2342 55.6583 54.3376 56.025 54.3376 56.455C54.3376 56.9483 54.2026 57.3433 53.9326 57.64C53.6759 57.92 53.3326 58.06 52.9026 58.06C52.4092 58.06 52.0342 57.88 51.7776 57.52C51.5709 57.2367 51.4676 56.8817 51.4676 56.455C51.4676 55.955 51.6026 55.5467 51.8726 55.23C52.1292 54.9267 52.4726 54.775 52.9026 54.775ZM52.9026 57.51C53.1426 57.51 53.3276 57.42 53.4576 57.24C53.5876 57.0567 53.6526 56.795 53.6526 56.455C53.6526 56.0917 53.5809 55.8083 53.4376 55.605C53.3042 55.425 53.1259 55.335 52.9026 55.335C52.6626 55.335 52.4759 55.4333 52.3426 55.63C52.2126 55.8267 52.1476 56.1017 52.1476 56.455C52.1476 57.1583 52.3992 57.51 52.9026 57.51ZM56.6241 57.25C56.8107 56.5667 57.0607 55.7617 57.3741 54.835H58.3241V58H57.6641V55.43C57.5074 56.1067 57.2507 56.9633 56.8941 58H56.3491C55.9724 56.8567 55.7174 56.0083 55.5841 55.455V58H54.9391V54.835H55.8491C56.1624 55.6883 56.4207 56.4933 56.6241 57.25Z" fill="white"/>
</svg>
