<svg width="60" height="60" viewBox="0 0 60 60" fill="none" xmlns="http://www.w3.org/2000/svg">
<circle cx="30" cy="30" r="30" fill="#1C8A44"/>
<path d="M10.9846 14.785C10.7646 14.785 10.5886 14.719 10.4566 14.587C10.3246 14.455 10.2586 14.2753 10.2586 14.048C10.2586 13.5713 10.5006 13.333 10.9846 13.333C11.2046 13.333 11.3769 13.399 11.5016 13.531C11.6336 13.6557 11.6996 13.828 11.6996 14.048C11.6996 14.5393 11.4613 14.785 10.9846 14.785ZM12.6786 14.785C12.4586 14.785 12.2826 14.719 12.1506 14.587C12.0186 14.455 11.9526 14.2753 11.9526 14.048C11.9526 13.5713 12.1946 13.333 12.6786 13.333C12.8986 13.333 13.0709 13.399 13.1956 13.531C13.3276 13.6557 13.3936 13.828 13.3936 14.048C13.3936 14.5393 13.1553 14.785 12.6786 14.785ZM14.5376 19.669H15.5276V21H14.4056C13.7236 21 13.1956 20.7727 12.8216 20.318C12.5063 20.56 12.1213 20.681 11.6666 20.681C10.9919 20.681 10.4529 20.428 10.0496 19.922C9.71961 19.504 9.55461 19.0017 9.55461 18.415C9.55461 17.689 9.78928 17.0987 10.2586 16.644C10.6546 16.2627 11.1129 16.072 11.6336 16.072C11.9049 16.072 12.1543 16.1233 12.3816 16.226V15.94L13.7566 15.214V18.877C13.7566 19.163 13.8153 19.3683 13.9326 19.493C14.0573 19.6103 14.2589 19.669 14.5376 19.669ZM12.3816 17.612C12.1909 17.4507 11.9746 17.37 11.7326 17.37C11.4906 17.37 11.2926 17.469 11.1386 17.667C10.9919 17.865 10.9186 18.1253 10.9186 18.448C10.9186 18.7707 10.9919 19.0273 11.1386 19.218C11.2853 19.4087 11.4869 19.504 11.7436 19.504C12.0223 19.504 12.2386 19.4087 12.3926 19.218C12.3853 19.1593 12.3816 19.0677 12.3816 18.943V17.612ZM14.8673 21V19.669H16.0333C16.3119 19.669 16.5099 19.6103 16.6273 19.493C16.7519 19.3683 16.8143 19.163 16.8143 18.877V17.425L18.2003 16.699V18.877C18.2003 19.163 18.2589 19.3683 18.3763 19.493C18.4936 19.6103 18.6916 19.669 18.9703 19.669H19.7183C19.9969 19.669 20.1949 19.6103 20.3123 19.493C20.4296 19.3683 20.4883 19.163 20.4883 18.877V17.139L21.8743 16.402V18.877C21.8743 19.163 21.9329 19.3683 22.0503 19.493C22.1749 19.6103 22.3766 19.669 22.6553 19.669H23.4033C23.6819 19.669 23.8799 19.6103 23.9973 19.493C24.1146 19.3683 24.1733 19.163 24.1733 18.877V16.842L25.5593 16.116V18.943C25.5593 19.5957 25.3613 20.109 24.9653 20.483C24.6206 20.813 24.1659 20.9853 23.6013 21H22.5123C21.9696 21 21.5259 20.8387 21.1813 20.516C20.8659 20.8313 20.4479 20.9927 19.9273 21H18.8383C18.2956 21 17.8519 20.8387 17.5073 20.516C17.1626 20.8387 16.7189 21 16.1763 21H14.8673ZM29.5218 20.318C29.5218 21.1687 29.2871 21.858 28.8178 22.386C28.3851 22.8773 27.8131 23.123 27.1018 23.123C26.6398 23.123 26.1888 23.0057 25.7488 22.771V21.561C26.1301 21.7737 26.5041 21.88 26.8708 21.88C27.2741 21.88 27.5858 21.748 27.8058 21.484C28.0331 21.2273 28.1468 20.868 28.1468 20.406V16.853L29.5218 16.116V20.318ZM30.6256 21L31.3186 19.669H33.0566C33.4306 19.669 33.6176 19.4527 33.6176 19.02C33.6176 18.2133 33.229 17.5937 32.4516 17.161L33.1336 15.984C34.2776 16.6513 34.8936 17.557 34.9816 18.701C35.011 19.0677 35.0916 19.3207 35.2236 19.46C35.363 19.5993 35.5976 19.669 35.9276 19.669H36.7636V21H35.8506C35.308 21 34.8496 20.8497 34.4756 20.549C34.2043 20.8497 33.8156 21 33.3096 21H30.6256ZM43.1006 19.669H44.0796V21H42.9576C42.4296 21 41.9969 20.8643 41.6596 20.593C41.2636 21.011 40.7429 21.22 40.0976 21.22C39.4376 21.22 38.9169 21.011 38.5356 20.593C38.1836 20.8643 37.7472 21 37.2266 21H36.1046V19.669H37.0946C37.3732 19.669 37.5712 19.6103 37.6886 19.493C37.8059 19.3683 37.8646 19.163 37.8646 18.877V18.558C37.8646 17.7 38.0882 17.0327 38.5356 16.556C38.9242 16.138 39.4449 15.929 40.0976 15.929C40.8382 15.929 41.4102 16.2003 41.8136 16.743C42.1509 17.205 42.3196 17.81 42.3196 18.558V18.877C42.3196 19.163 42.3782 19.3683 42.4956 19.493C42.6202 19.6103 42.8219 19.669 43.1006 19.669ZM40.0976 19.889C40.6549 19.889 40.9336 19.4343 40.9336 18.525C40.9336 17.6523 40.6549 17.216 40.0976 17.216C39.5329 17.216 39.2506 17.6523 39.2506 18.525C39.2506 19.4343 39.5329 19.889 40.0976 19.889ZM43.42 21V19.669H44.113C44.4503 19.669 44.6887 19.5957 44.828 19.449C44.9747 19.3023 45.048 19.053 45.048 18.701V14.642L46.423 13.905V18.712C46.423 19.4233 46.2067 19.9917 45.774 20.417C45.378 20.8057 44.85 21 44.19 21H43.42ZM48.4031 21V14.642L49.7891 13.905V21H48.4031ZM19.3006 37.465V34.726C19.3006 34.1027 19.4839 33.604 19.8506 33.23C20.1732 32.9073 20.6059 32.724 21.1486 32.68C20.9506 32.372 20.8516 31.965 20.8516 31.459C20.8516 30.6523 21.0716 30.0143 21.5116 29.545C21.9002 29.1343 22.4136 28.929 23.0516 28.929C23.7042 28.929 24.2139 29.138 24.5806 29.556C24.8959 29.9153 25.0536 30.3847 25.0536 30.964V32.273C25.0462 32.8157 24.8629 33.2373 24.5036 33.538C24.1442 33.8387 23.6382 33.9927 22.9856 34H21.4566C21.1779 34 20.9799 34.0587 20.8626 34.176C20.7452 34.3007 20.6866 34.506 20.6866 34.792V36.739L19.3006 37.465ZM23.6676 30.942C23.6676 30.458 23.4622 30.216 23.0516 30.216C22.7876 30.216 22.5786 30.3223 22.4246 30.535C22.2779 30.7477 22.2046 31.041 22.2046 31.415C22.2046 32.251 22.4796 32.669 23.0296 32.669C23.4549 32.669 23.6676 32.4637 23.6676 32.053V30.942ZM32.1491 32.669V34H30.7961C30.7447 34.66 30.4514 35.188 29.9161 35.584C29.4761 35.9067 28.9627 36.068 28.3761 36.068C27.9141 36.068 27.4631 35.9433 27.0231 35.694V34.495C27.4191 34.7223 27.8151 34.836 28.2111 34.836C28.5191 34.836 28.7904 34.7517 29.0251 34.583C29.2671 34.4143 29.3991 34.2127 29.4211 33.978C29.3624 33.9707 29.2707 33.9633 29.1461 33.956C29.0214 33.9413 28.9261 33.9303 28.8601 33.923C28.1047 33.8423 27.5217 33.5453 27.1111 33.032C26.7664 32.5993 26.5941 32.075 26.5941 31.459C26.5941 30.6523 26.8141 30.0143 27.2541 29.545C27.6427 29.1343 28.1561 28.929 28.7941 28.929C29.4467 28.929 29.9564 29.138 30.3231 29.556C30.6384 29.9153 30.7961 30.3847 30.7961 30.964V32.669H32.1491ZM29.4211 30.942C29.4211 30.458 29.2121 30.216 28.7941 30.216C28.2367 30.216 27.9581 30.6157 27.9581 31.415C27.9581 32.1263 28.2807 32.5223 28.9261 32.603C29.0287 32.625 29.1937 32.6433 29.4211 32.658V30.942ZM34.0758 29.149C34.6258 29.193 35.1098 29.358 35.5278 29.644C36.2758 30.15 36.6498 30.8797 36.6498 31.833V31.976C36.6498 32.636 36.4445 33.153 36.0338 33.527C35.6745 33.8423 35.2088 34 34.6368 34H31.4908V32.669H34.4938C35.0071 32.669 35.2638 32.416 35.2638 31.91V31.844C35.2638 31.448 35.1098 31.1253 34.8018 30.876C34.5011 30.6267 34.1051 30.502 33.6138 30.502C33.2471 30.502 32.8585 30.5753 32.4478 30.722V29.391L34.6808 26.905H36.0778L34.0758 29.149ZM39.9391 33.241C39.9391 33.2483 39.9391 33.2557 39.9391 33.263C39.9391 33.4977 39.8657 33.6883 39.7191 33.835C39.5724 33.9817 39.3781 34.055 39.1361 34.055C38.8867 34.055 38.6851 33.9817 38.5311 33.835C38.3844 33.681 38.3111 33.4793 38.3111 33.23V33.208C38.3257 32.9807 38.4064 32.7973 38.5531 32.658C38.7071 32.5187 38.9014 32.449 39.1361 32.449C39.3781 32.449 39.5724 32.5223 39.7191 32.669C39.8657 32.8157 39.9391 33.0063 39.9391 33.241Z" fill="white"/>
<path d="M13.5665 42.468H15.2225V42.888H14.0905V43.484H15.0345V43.904H14.0905V44.58H15.2745V45H13.5665V42.468ZM15.654 45V42.468H16.178V44.58H17.126V45H15.654ZM18.8535 44.4C19.0029 43.8533 19.2029 43.2093 19.4535 42.468H20.2135V45H19.6855V42.944C19.5602 43.4853 19.3549 44.1707 19.0695 45H18.6335C18.3322 44.0853 18.1282 43.4067 18.0215 42.964V45H17.5055V42.468H18.2335C18.4842 43.1507 18.6909 43.7947 18.8535 44.4ZM21.4852 42.468H21.9252L22.8572 45H22.3252C22.2799 44.8667 22.2239 44.6907 22.1572 44.472H21.2492C21.2119 44.592 21.1545 44.768 21.0772 45H20.5532L21.4852 42.468ZM21.7092 43.152C21.6345 43.3627 21.5319 43.6587 21.4012 44.04H22.0092C21.8839 43.672 21.7839 43.376 21.7092 43.152ZM23.197 42.472C23.3276 42.4373 23.5583 42.42 23.889 42.42C24.345 42.42 24.693 42.5533 24.933 42.82C25.1383 43.0467 25.241 43.3427 25.241 43.708C25.241 44.164 25.1103 44.5067 24.849 44.736C24.6116 44.944 24.281 45.048 23.857 45.048C23.5903 45.048 23.3703 45.0307 23.197 44.996V42.472ZM23.721 44.616C23.7743 44.6293 23.841 44.636 23.921 44.636C24.4356 44.636 24.693 44.332 24.693 43.724C24.693 43.4227 24.6076 43.192 24.437 43.032C24.2983 42.904 24.1223 42.84 23.909 42.84C23.8476 42.84 23.785 42.8467 23.721 42.86V44.616ZM25.7204 45V42.472C25.7577 42.464 25.8631 42.4533 26.0364 42.44C26.2097 42.4267 26.3417 42.42 26.4324 42.42C27.0777 42.42 27.4004 42.684 27.4004 43.212C27.4004 43.4973 27.2844 43.74 27.0524 43.94C27.1484 44.1613 27.3124 44.5147 27.5444 45H27.0164C26.8857 44.7147 26.7444 44.408 26.5924 44.08C26.5631 44.0853 26.5231 44.088 26.4724 44.088C26.3551 44.088 26.2791 44.0773 26.2444 44.056V45H25.7204ZM26.2444 42.868V43.632C26.3244 43.656 26.4111 43.668 26.5044 43.668C26.7337 43.668 26.8484 43.516 26.8484 43.212C26.8484 42.964 26.7297 42.84 26.4924 42.84C26.3564 42.84 26.2737 42.8493 26.2444 42.868ZM28.5125 42.468H28.9525L29.8845 45H29.3525C29.3072 44.8667 29.2512 44.6907 29.1845 44.472H28.2765C28.2392 44.592 28.1819 44.768 28.1045 45H27.5805L28.5125 42.468ZM28.7365 43.152C28.6619 43.3627 28.5592 43.6587 28.4285 44.04H29.0365C28.9112 43.672 28.8112 43.376 28.7365 43.152ZM31.7923 42.676C31.7443 42.748 31.6696 42.856 31.5683 43C31.355 42.9067 31.1643 42.86 30.9963 42.86C30.775 42.86 30.6643 42.9427 30.6643 43.108C30.6643 43.1827 30.6896 43.2413 30.7403 43.284C30.791 43.3267 30.8963 43.3787 31.0563 43.44C31.3443 43.552 31.551 43.6733 31.6763 43.804C31.8043 43.9347 31.8683 44.092 31.8683 44.276C31.8683 44.5347 31.771 44.7347 31.5763 44.876C31.4163 44.9907 31.2176 45.048 30.9803 45.048C30.7003 45.048 30.4016 44.9467 30.0843 44.744L30.3163 44.42C30.471 44.524 30.6696 44.576 30.9123 44.576C31.187 44.576 31.3243 44.4653 31.3243 44.244C31.3243 44.1 31.1763 43.9773 30.8803 43.876C30.403 43.716 30.1643 43.46 30.1643 43.108C30.1643 42.8947 30.2443 42.7253 30.4043 42.6C30.5536 42.48 30.7523 42.42 31.0003 42.42C31.283 42.42 31.547 42.5053 31.7923 42.676ZM32.9618 42.468H33.4018L34.3338 45H33.8018C33.7564 44.8667 33.7004 44.6907 33.6338 44.472H32.7258C32.6884 44.592 32.6311 44.768 32.5538 45H32.0298L32.9618 42.468ZM33.1858 43.152C33.1111 43.3627 33.0084 43.6587 32.8778 44.04H33.4858C33.3604 43.672 33.2604 43.376 33.1858 43.152ZM35.1895 45H34.6735V42.468H35.1895V43.484H36.2775V42.468H36.8015V45H36.2775V43.904H35.1895V45ZM38.079 44.724C38.079 44.7267 38.079 44.7293 38.079 44.732C38.079 44.8173 38.0524 44.8867 37.999 44.94C37.9457 44.9933 37.875 45.02 37.787 45.02C37.6964 45.02 37.623 44.9933 37.567 44.94C37.5137 44.884 37.487 44.8107 37.487 44.72V44.712C37.4924 44.6293 37.5217 44.5627 37.575 44.512C37.631 44.4613 37.7017 44.436 37.787 44.436C37.875 44.436 37.9457 44.4627 37.999 44.516C38.0524 44.5693 38.079 44.6387 38.079 44.724ZM40.5635 44.716C40.3422 44.9373 40.0822 45.048 39.7835 45.048C39.3542 45.048 39.0342 44.888 38.8235 44.568C38.6715 44.3387 38.5955 44.0693 38.5955 43.76C38.5955 43.3573 38.6995 43.0333 38.9075 42.788C39.1129 42.5427 39.3982 42.42 39.7635 42.42C40.0195 42.42 40.2755 42.528 40.5315 42.744L40.3275 43.076C40.1355 42.9373 39.9609 42.868 39.8035 42.868C39.5849 42.868 39.4155 42.96 39.2955 43.144C39.1915 43.3013 39.1395 43.5067 39.1395 43.76C39.1395 43.984 39.2009 44.176 39.3235 44.336C39.4542 44.504 39.6289 44.588 39.8475 44.588C39.9915 44.588 40.1622 44.5253 40.3595 44.4L40.5635 44.716ZM42.0326 42.42C42.4219 42.42 42.7219 42.5747 42.9326 42.884C43.0979 43.1267 43.1806 43.42 43.1806 43.764C43.1806 44.1587 43.0726 44.4747 42.8566 44.712C42.6513 44.936 42.3766 45.048 42.0326 45.048C41.6379 45.048 41.3379 44.904 41.1326 44.616C40.9673 44.3893 40.8846 44.1053 40.8846 43.764C40.8846 43.364 40.9926 43.0373 41.2086 42.784C41.4139 42.5413 41.6886 42.42 42.0326 42.42ZM42.0326 44.608C42.2246 44.608 42.3726 44.536 42.4766 44.392C42.5806 44.2453 42.6326 44.036 42.6326 43.764C42.6326 43.4733 42.5753 43.2467 42.4606 43.084C42.3539 42.94 42.2113 42.868 42.0326 42.868C41.8406 42.868 41.6913 42.9467 41.5846 43.104C41.4806 43.2613 41.4286 43.4813 41.4286 43.764C41.4286 44.3267 41.6299 44.608 42.0326 44.608ZM45.0098 44.4C45.1591 43.8533 45.3591 43.2093 45.6098 42.468H46.3698V45H45.8418V42.944C45.7165 43.4853 45.5111 44.1707 45.2258 45H44.7898C44.4885 44.0853 44.2845 43.4067 44.1778 42.964V45H43.6618V42.468H44.3898C44.6405 43.1507 44.8471 43.7947 45.0098 44.4Z" fill="white"/>
</svg>
