<svg width="26" height="26" viewBox="0 0 26 26" fill="none" xmlns="http://www.w3.org/2000/svg">
<path d="M1 13C1 19.6274 6.37258 25 13 25C19.6274 25 25 19.6274 25 13C25 6.37258 19.6274 1 13 1C6.37258 1 1 6.37258 1 13Z" fill="white"/>
<path d="M11.6667 9L7.66667 13M7.66667 13L11.6667 17M7.66667 13L18.3333 13M0.999999 13C0.999999 19.6274 6.37258 25 13 25C19.6274 25 25 19.6274 25 13C25 6.37258 19.6274 1 13 1C6.37258 1 0.999999 6.37258 0.999999 13Z" stroke="#1C8A44" stroke-width="2" stroke-linecap="round" stroke-linejoin="round"/>
</svg>
