<?xml version="1.0" standalone="no"?>
<!DOCTYPE svg PUBLIC "-//W3C//DTD SVG 20010904//EN"
 "http://www.w3.org/TR/2001/REC-SVG-20010904/DTD/svg10.dtd">
<svg version="1.0" xmlns="http://www.w3.org/2000/svg"
 width="70px" height="70px" viewBox="0 0 5000.000000 5000.000000"
 preserveAspectRatio="xMidYMid meet">

<g transform="translate(0.000000,5000.000000) scale(0.100000,-0.100000)"
fill="#000000" stroke="none">
<path d="M24560 44688 c-3 -3 -115 -8 -250 -12 -1283 -34 -2711 -232 -4045
-561 -2872 -708 -5556 -2065 -7843 -3967 -3971 -3303 -6479 -7994 -7006
-13108 -74 -715 -101 -1259 -101 -2040 0 -781 27 -1325 101 -2040 188 -1829
633 -3625 1319 -5325 1904 -4719 5595 -8546 10245 -10622 1048 -468 2208 -866
3305 -1133 1179 -288 2324 -461 3535 -535 688 -41 1671 -41 2360 0 2113 129
4139 579 6090 1352 1281 508 2506 1152 3665 1928 2538 1698 4652 3965 6172
6620 263 459 564 1043 778 1510 15 33 41 89 57 125 469 1025 904 2282 1178
3405 288 1180 461 2322 535 3535 41 689 41 1672 0 2360 -129 2112 -579 4140
-1352 6090 -697 1756 -1656 3418 -2837 4915 -3027 3838 -7356 6412 -12150
7225 -849 144 -1534 216 -2521 265 -148 7 -1229 18 -1235 13z m1387 -1902
c905 -51 1716 -153 2563 -322 3091 -616 5964 -2052 8340 -4168 365 -324 890
-840 1219 -1195 1709 -1848 3010 -4033 3807 -6394 474 -1405 757 -2787 879
-4297 3 -36 8 -87 10 -115 2 -27 7 -106 11 -175 3 -69 7 -138 9 -155 2 -16 7
-127 12 -245 15 -399 8 -1501 -12 -1685 -2 -16 -6 -86 -9 -155 -4 -69 -9 -147
-11 -175 -2 -27 -7 -79 -10 -115 -123 -1511 -405 -2891 -879 -4297 -218 -645
-422 -1151 -756 -1878 -63 -138 -319 -644 -425 -840 -716 -1329 -1594 -2559
-2626 -3676 -183 -199 -769 -785 -968 -968 -2565 -2369 -5717 -3920 -9136
-4496 -462 -78 -1046 -149 -1555 -190 -36 -3 -87 -8 -115 -10 -27 -2 -106 -7
-175 -11 -69 -3 -138 -7 -155 -9 -245 -26 -1685 -26 -1930 0 -16 2 -86 6 -155
9 -69 4 -147 9 -175 11 -27 2 -79 7 -115 10 -1322 106 -2571 343 -3805 720
-3229 988 -6115 2883 -8330 5470 -1464 1709 -2606 3716 -3326 5842 -512 1515
-814 3067 -909 4668 -21 357 -25 547 -25 1090 1 683 23 1151 85 1770 27 271
88 754 110 885 6 30 26 150 44 265 518 3168 1955 6225 4083 8683 542 626 1219
1303 1845 1845 1727 1495 3758 2658 5915 3388 1176 397 2325 658 3593 813 463
57 916 91 1625 120 199 8 1202 -4 1452 -18z"/>
<path d="M24759 36716 c-2 -2 -53 -6 -114 -10 -348 -20 -790 -108 -1159 -231
-1021 -338 -1903 -1014 -2506 -1919 -427 -640 -686 -1364 -777 -2171 -21 -188
-24 -737 -5 -925 94 -917 414 -1743 950 -2455 722 -959 1787 -1623 2947 -1839
356 -66 498 -79 865 -80 370 -1 533 10 805 55 1375 227 2561 1011 3311 2189
649 1018 888 2282 658 3475 -184 954 -640 1811 -1329 2500 -710 710 -1600
1173 -2587 1344 -144 25 -242 38 -343 46 -44 4 -91 9 -105 12 -31 6 -605 15
-611 9z"/>
<path d="M21930 25820 c-937 -58 -1772 -284 -2585 -700 -1036 -531 -1934
-1361 -2542 -2350 -461 -751 -760 -1570 -888 -2438 -63 -426 -60 -266 -60
-2962 l0 -2454 85 -34 c1888 -743 4031 -1242 6290 -1466 273 -27 546 -51 700
-61 52 -3 115 -8 140 -10 25 -2 90 -6 145 -10 55 -3 132 -8 170 -10 482 -31
859 -40 1615 -40 756 0 1133 9 1615 40 39 2 115 7 170 10 55 4 120 8 145 10
25 2 88 7 140 10 149 10 422 33 700 61 2252 222 4401 723 6290 1466 l85 34 0
2454 c0 2696 3 2536 -60 2962 -231 1565 -1022 2977 -2240 3998 -891 747 -1964
1236 -3115 1420 -213 34 -406 54 -665 70 -160 10 -5975 10 -6135 0z"/>
</g>
</svg>
