<svg width="111" height="111" viewBox="0 0 111 111" fill="none" xmlns="http://www.w3.org/2000/svg">
<path d="M14.4261 27.1694C8.09418 36.3437 5.01933 47.3752 5.69263 58.502C6.36594 69.6288 10.7485 80.2091 18.1405 88.5528C25.5324 96.8966 35.5072 102.523 46.4718 104.532C57.4363 106.542 68.758 104.819 78.6286 99.6392C88.4992 94.4594 96.3492 86.1211 100.925 75.9564C105.501 65.7916 106.538 54.3866 103.871 43.5631C101.205 32.7396 94.9877 23.122 86.2137 16.2463C77.4397 9.37054 66.6145 5.63343 55.4674 5.63184C52.4107 5.63201 49.3603 5.90798 46.3532 6.4564" stroke="#DAF1E4" stroke-width="1.1418" stroke-linecap="round" stroke-linejoin="round"/>
<path d="M22.9228 17.7471C21.2476 19.1968 19.6685 20.754 18.1953 22.4086" stroke="#DAF1E4" stroke-width="1.1418" stroke-linecap="round" stroke-linejoin="round"/>
<path d="M94.4223 72.0778C103.578 50.5816 93.5739 25.7334 72.0777 16.5778C50.5815 7.42221 25.7333 17.4262 16.5777 38.9224C7.42208 60.4186 17.4261 85.2668 38.9223 94.4224C60.4185 103.578 85.2667 93.574 94.4223 72.0778Z" fill="#1C8A44"/>
<path d="M35.9629 51.1034L52.0144 69.3427L78.2685 32.1494" stroke="white" stroke-width="6.85078" stroke-linecap="round" stroke-linejoin="round"/>
</svg>
