<svg width="16" height="16" viewBox="0 0 16 16" fill="none" xmlns="http://www.w3.org/2000/svg">
<g clip-path="url(#clip0_724_3205)">
<path d="M12.6667 3.528V1.33333H13.3333C13.5101 1.33333 13.6797 1.2631 13.8047 1.13807C13.9298 1.01305 14 0.843478 14 0.666667C14 0.489856 13.9298 0.320286 13.8047 0.195262C13.6797 0.0702379 13.5101 0 13.3333 0L2.66667 0C2.48986 0 2.32029 0.0702379 2.19526 0.195262C2.07024 0.320286 2 0.489856 2 0.666667C2 0.843478 2.07024 1.01305 2.19526 1.13807C2.32029 1.2631 2.48986 1.33333 2.66667 1.33333H3.33333V3.528C3.33051 4.39529 3.57072 5.24603 4.02673 5.98377C4.48273 6.72151 5.1363 7.31675 5.91333 7.702L6.50933 8L5.91333 8.298C5.1363 8.68325 4.48273 9.27849 4.02673 10.0162C3.57072 10.754 3.33051 11.6047 3.33333 12.472V14.6667H2.66667C2.48986 14.6667 2.32029 14.7369 2.19526 14.8619C2.07024 14.987 2 15.1565 2 15.3333C2 15.5101 2.07024 15.6797 2.19526 15.8047C2.32029 15.9298 2.48986 16 2.66667 16H13.3333C13.5101 16 13.6797 15.9298 13.8047 15.8047C13.9298 15.6797 14 15.5101 14 15.3333C14 15.1565 13.9298 14.987 13.8047 14.8619C13.6797 14.7369 13.5101 14.6667 13.3333 14.6667H12.6667V12.472C12.6695 11.6047 12.4293 10.754 11.9733 10.0162C11.5173 9.27849 10.8637 8.68325 10.0867 8.298L9.49067 8L10.0867 7.702C10.8637 7.31675 11.5173 6.72151 11.9733 5.98377C12.4293 5.24603 12.6695 4.39529 12.6667 3.528ZM4.66667 3.528V1.33333H11.3333V3.528C11.3355 4.14748 11.164 4.75517 10.8383 5.28213C10.5126 5.80909 10.0457 6.23423 9.49067 6.50933L8 7.25467L6.50933 6.50933C5.95428 6.23423 5.48743 5.80909 5.16173 5.28213C4.83604 4.75517 4.66453 4.14748 4.66667 3.528ZM11.3333 12.472V14.6667H4.66667V12.472C4.66453 11.8525 4.83604 11.2448 5.16173 10.7179C5.48743 10.1909 5.95428 9.76577 6.50933 9.49067L8 8.74533L9.49067 9.49067C10.0457 9.76577 10.5126 10.1909 10.8383 10.7179C11.164 11.2448 11.3355 11.8525 11.3333 12.472Z" fill="#171717"/>
<path d="M7.10601 5.31666C7.26398 5.39407 7.44613 5.4059 7.61278 5.34959C7.77944 5.29327 7.91708 5.17337 7.99571 5.01601C8.07435 4.85866 8.0876 4.6766 8.03259 4.50951C7.97757 4.34242 7.85875 4.20385 7.70201 4.12399C7.591 4.06904 7.49761 3.98406 7.43244 3.87872C7.36728 3.77337 7.33295 3.65187 7.33334 3.52799C7.33334 3.35118 7.2631 3.18161 7.13808 3.05659C7.01306 2.93157 6.84349 2.86133 6.66668 2.86133C6.48987 2.86133 6.3203 2.93157 6.19527 3.05659C6.07025 3.18161 6.00001 3.35118 6.00001 3.52799C5.99885 3.89969 6.10185 4.26428 6.29734 4.58042C6.49282 4.89656 6.77296 5.15162 7.10601 5.31666ZM8.89401 10.6833C8.73604 10.6059 8.55389 10.5941 8.38723 10.6504C8.22058 10.7067 8.08294 10.8266 8.00431 10.984C7.92567 11.1413 7.91242 11.3234 7.96743 11.4905C8.02245 11.6576 8.14127 11.7961 8.29801 11.876C8.40902 11.931 8.50241 12.0159 8.56758 12.1213C8.63274 12.2266 8.66707 12.3481 8.66668 12.472C8.66668 12.6488 8.73691 12.8184 8.86194 12.9434C8.98696 13.0684 9.15653 13.1387 9.33334 13.1387C9.51015 13.1387 9.67972 13.0684 9.80475 12.9434C9.92977 12.8184 10 12.6488 10 12.472C10.0012 12.1003 9.89817 11.7357 9.70268 11.4196C9.5072 11.1034 9.22706 10.8484 8.89401 10.6833Z" fill="#171717"/>
</g>
<defs>
<clipPath id="clip0_724_3205">
<rect width="16" height="16" fill="white"/>
</clipPath>
</defs>
</svg>
